<svg class="schematic_svg" xmlns="http://www.w3.org/2000/svg" xmlns:xlink="http://www.w3.org/1999/xlink" width="11.505999999999998in" height="7.606000000000001in" viewBox="-0.3,-760.3 1150.6,760.6" stroke-width="1"><style type="text/css">.schematic_svg .outline, .schematic_svg path, .schematic_svg line, .schematic_svg polyline {
  stroke: currentColor;
  stroke-linecap: round;
  fill: none;
}
.schematic_svg .solid {
  fill: currentColor;
  stroke: none;
}
.schematic_svg text {
  dominant-baseline: text-after-edge;
  fill: currentColor;
}
.font2 {
  font-size: 8.75px;
  font-family: Times New Roman;
  text-decoration: underline;
}
text, .font1 {
  font-size: 8.75px;
  font-family: Times New Roman;
}
</style><defs><g id="gnd"><line x2="10"/><line y1="7" y2="-7" stroke-width="1.5" transform="translate(10, 0)"/><line y1="4" y2="-4" stroke-width="1.5" transform="translate(13, 0)"/><line y1="1" y2="-1" stroke-width="1.5" transform="translate(16, 0)"/></g><g id="rail"><line x2="10"/><line y1="7" y2="-7" stroke-width="1.5" transform="translate(10, 0)"/></g><g id="arrowconn"><polygon points="-5.33333,-0.5 -7,-3 0,0 -7,3 -5.33333,0.5" class="solid" transform="translate(10, 0)"/><line x2="4.66667"/></g><g id="dchevron"><line x2="5"/><polyline points="8,-4 5,0 8,4"/><polyline points="11,-4 8,0 11,4"/></g><g id="nc"><line x1="3" y1="-3" x2="-3" y2="3" stroke-width="0.6"/><line x1="-3" y1="-3" x2="3" y2="3" stroke-width="0.6"/></g><g id="clock"><polyline points="0,-3 -5,0 0,3" stroke-width="0.6"/></g></defs><g transform="translate(0, -760)"><rect width="1150" height="760" class="outline" stroke-width="0.6" style="fill: #FFFCF8"/><rect x="20" y="20" width="1110" height="720" class="outline" stroke-width="0.6"/><g transform="translate(143.75, 10)"><text style="dominant-baseline: middle; text-anchor: middle">1</text><line y1="10" y2="-10" stroke-width="0.6" transform="translate(143.75, 0)"/></g><g transform="translate(431.25, 10)"><text style="dominant-baseline: middle; text-anchor: middle">2</text><line y1="10" y2="-10" stroke-width="0.6" transform="translate(143.75, 0)"/></g><g transform="translate(718.75, 10)"><text style="dominant-baseline: middle; text-anchor: middle">3</text><line y1="10" y2="-10" stroke-width="0.6" transform="translate(143.75, 0)"/></g><g transform="translate(1006.25, 10)"><text style="dominant-baseline: middle; text-anchor: middle">4</text></g><g transform="translate(143.75, 750)"><text style="dominant-baseline: middle; text-anchor: middle">1</text><line y1="10" y2="-10" stroke-width="0.6" transform="translate(143.75, 0)"/></g><g transform="translate(431.25, 750)"><text style="dominant-baseline: middle; text-anchor: middle">2</text><line y1="10" y2="-10" stroke-width="0.6" transform="translate(143.75, 0)"/></g><g transform="translate(718.75, 750)"><text style="dominant-baseline: middle; text-anchor: middle">3</text><line y1="10" y2="-10" stroke-width="0.6" transform="translate(143.75, 0)"/></g><g transform="translate(1006.25, 750)"><text style="dominant-baseline: middle; text-anchor: middle">4</text></g><g transform="translate(10, 95.0)"><text style="dominant-baseline: middle; text-anchor: middle">A</text><line x1="-10" x2="10" stroke-width="0.6" transform="translate(0, 95.0)"/></g><g transform="translate(10, 285.0)"><text style="dominant-baseline: middle; text-anchor: middle">B</text><line x1="-10" x2="10" stroke-width="0.6" transform="translate(0, 95.0)"/></g><g transform="translate(10, 475.0)"><text style="dominant-baseline: middle; text-anchor: middle">C</text><line x1="-10" x2="10" stroke-width="0.6" transform="translate(0, 95.0)"/></g><g transform="translate(10, 665.0)"><text style="dominant-baseline: middle; text-anchor: middle">D</text></g><g transform="translate(1140, 95.0)"><text style="dominant-baseline: middle; text-anchor: middle">A</text><line x1="-10" x2="10" stroke-width="0.6" transform="translate(0, 95.0)"/></g><g transform="translate(1140, 285.0)"><text style="dominant-baseline: middle; text-anchor: middle">B</text><line x1="-10" x2="10" stroke-width="0.6" transform="translate(0, 95.0)"/></g><g transform="translate(1140, 475.0)"><text style="dominant-baseline: middle; text-anchor: middle">C</text><line x1="-10" x2="10" stroke-width="0.6" transform="translate(0, 95.0)"/></g><g transform="translate(1140, 665.0)"><text style="dominant-baseline: middle; text-anchor: middle">D</text></g><g transform="translate(1130, 740)"><polyline points="-350,0 -350,-80 0,-80" stroke-width="0.6"/><line x1="-350" x2="0" stroke-width="0.6" transform="translate(0, -50)"/><line y2="30" stroke-width="0.6" transform="translate(-300, -50)"/><line y2="30" stroke-width="0.6" transform="translate(-100, -50)"/><line x1="-350" x2="0" stroke-width="0.6" transform="translate(0, -20)"/><line x1="-350" x2="0" stroke-width="0.6" transform="translate(0, -10)"/><line y1="-20" y2="0" stroke-width="0.6" transform="translate(-150, 0)"/><text transform="translate(-345, -70)">Title</text><text transform="translate(-345, -40)">Size</text><text style="dominant-baseline: middle" transform="translate(-340, -30)">A4</text><text transform="translate(-295, -40)">Number</text><text transform="translate(-95, -40)">Revision</text><text transform="translate(-345, -10)">Date</text><text transform="translate(-300, -10)">03/03/21</text><text transform="translate(-345, 0)">File</text><text transform="translate(-300, 0)">D:/Documents/school/PE2/Small-scale-remoted-controlled-cargo-truck\Hardware/Truck/lichten.SchDoc</text><text transform="translate(-145, -10)">Sheet</text><text transform="translate(-117, -10)">of</text><text transform="translate(-145, 0)">Drawn By:</text></g></g><rect x="509.921" y="-444.646" width="90" height="130" class="solid" stroke-width="0.6" data-id="GVCWKCLD" style="fill: #FFFFB0; stroke: #800000"/><g data-id="GVCWKCLD" transform="translate(509.92128, -434.64568) rotate(-180)"><line x2="30"/><text style="dominant-baseline: middle; text-anchor: start" transform="translate(-7, 0) rotate(-180)"><tspan>VIN</tspan></text><text style="text-anchor: end" transform="translate(9, 0) rotate(-180)">1</text></g><g data-id="GVCWKCLD" transform="translate(509.92128, -424.64568) rotate(-180)"><polygon points="5.33333,-0.5 7,-3 0,0 7,3 5.33333,0.5" class="solid" transform="translate(0, 0)"/><line x1="5.33333" x2="30"/><text style="dominant-baseline: middle; text-anchor: start" transform="translate(-7, 0) rotate(-180)"><tspan>CSP1</tspan></text><text style="text-anchor: end" transform="translate(9, 0) rotate(-180)">2</text></g><g data-id="GVCWKCLD" transform="translate(509.92128, -414.64568) rotate(-180)"><polygon points="5.33333,-0.5 7,-3 0,0 7,3 5.33333,0.5" class="solid" transform="translate(0, 0)"/><line x1="5.33333" x2="30"/><text style="dominant-baseline: middle; text-anchor: start" transform="translate(-7, 0) rotate(-180)"><tspan>CSN1</tspan></text><text style="text-anchor: end" transform="translate(9, 0) rotate(-180)">3</text></g><g data-id="GVCWKCLD" transform="translate(509.92128, -404.64568) rotate(-180)"><polygon points="5.6,-0.5 0,-2.5 0,0 0,2.5 5.6,0.5" class="solid" transform="translate(0, 0)"/><line x1="5.6" x2="30"/><text style="dominant-baseline: middle; text-anchor: start" transform="translate(-7, 0) rotate(-180)"><tspan>GATE1</tspan></text><text style="text-anchor: end" transform="translate(9, 0) rotate(-180)">4</text></g><g data-id="GVCWKCLD" transform="translate(509.92128, -394.64568) rotate(-180)"><polygon points="5.33333,-0.5 7,-3 0,0 7,3 5.33333,0.5" class="solid" transform="translate(0, 0)"/><line x1="5.33333" x2="30"/><text style="dominant-baseline: middle; text-anchor: start" transform="translate(-7, 0) rotate(-180)"><tspan>SW1</tspan></text><text style="text-anchor: end" transform="translate(9, 0) rotate(-180)">5</text></g><g data-id="GVCWKCLD" transform="translate(509.92128, -384.64568) rotate(-180)"><polygon points="5.33333,-0.5 7,-3 0,0 7,3 5.33333,0.5" class="solid" transform="translate(0, 0)"/><line x1="5.33333" x2="30"/><text style="dominant-baseline: middle; text-anchor: start" transform="translate(-7, 0) rotate(-180)"><tspan>BOOT1</tspan></text><text style="text-anchor: end" transform="translate(9, 0) rotate(-180)">6</text></g><g data-id="GVCWKCLD" transform="translate(509.92128, -374.64568) rotate(-180)"><polygon points="5.6,-0.5 0,-2.5 0,0 0,2.5 5.6,0.5" class="solid" transform="translate(0, 0)"/><line x1="5.6" x2="30"/><text style="dominant-baseline: middle; text-anchor: start" transform="translate(-7, 0) rotate(-180)"><tspan>VCC1</tspan></text><text style="text-anchor: end" transform="translate(9, 0) rotate(-180)">7</text></g><g data-id="GVCWKCLD" transform="translate(509.92128, -364.64568) rotate(-180)"><line x2="30"/><text style="dominant-baseline: middle; text-anchor: start" transform="translate(-7, 0) rotate(-180)"><tspan>GND</tspan></text><text style="text-anchor: end" transform="translate(9, 0) rotate(-180)">8</text></g><g data-id="GVCWKCLD" transform="translate(509.92128, -354.64568) rotate(-180)"><polygon points="5.33333,-0.5 7,-3 0,0 7,3 5.33333,0.5" class="solid" transform="translate(0, 0)"/><line x1="5.33333" x2="30"/><text style="dominant-baseline: middle; text-anchor: start" transform="translate(-7, 0) rotate(-180)"><tspan>VLED1</tspan></text><text style="text-anchor: end" transform="translate(9, 0) rotate(-180)">9</text></g><g data-id="GVCWKCLD" transform="translate(509.92128, -344.64568) rotate(-180)"><polygon points="5.33333,-0.5 7,-3 0,0 7,3 5.33333,0.5" class="solid" transform="translate(0, 0)"/><line x1="5.33333" x2="30"/><text style="dominant-baseline: middle; text-anchor: start" transform="translate(-7, 0) rotate(-180)"><tspan>PWM1</tspan></text><text style="text-anchor: end" transform="translate(9, 0) rotate(-180)">10</text></g><g data-id="GVCWKCLD" transform="translate(509.92128, -334.64568) rotate(-180)"><polygon points="5.33333,-0.5 7,-3 0,0 7,3 5.33333,0.5" class="solid" transform="translate(0, 0)"/><line x1="5.33333" x2="30"/><text style="dominant-baseline: middle; text-anchor: start" transform="translate(-7, 0) rotate(-180)"><tspan>SSN</tspan></text><text style="text-anchor: end" transform="translate(9, 0) rotate(-180)">11</text></g><g data-id="GVCWKCLD" transform="translate(509.92128, -324.64568) rotate(-180)"><polygon points="5.33333,-0.5 7,-3 0,0 7,3 5.33333,0.5" class="solid" transform="translate(0, 0)"/><line x1="5.33333" x2="30"/><text style="dominant-baseline: middle; text-anchor: start" transform="translate(-7, 0) rotate(-180)"><tspan>SCK</tspan></text><text style="text-anchor: end" transform="translate(9, 0) rotate(-180)">12</text></g><g data-id="GVCWKCLD" transform="translate(599.92128, -324.64568) rotate(0)"><polygon points="5.33333,-0.5 7,-3 0,0 7,3 5.33333,0.5" class="solid" transform="translate(0, 0)"/><line x1="5.33333" x2="30"/><text style="dominant-baseline: middle; text-anchor: end" transform="translate(-7, 0)"><tspan>MISO</tspan></text><text style="text-anchor: start" transform="translate(9, 0)">13</text></g><g data-id="GVCWKCLD" transform="translate(599.92128, -334.64568) rotate(0)"><polygon points="5.33333,-0.5 7,-3 0,0 7,3 5.33333,0.5" class="solid" transform="translate(0, 0)"/><line x1="5.33333" x2="30"/><text style="dominant-baseline: middle; text-anchor: end" transform="translate(-7, 0)"><tspan>MOSI</tspan></text><text style="text-anchor: start" transform="translate(9, 0)">14</text></g><g data-id="GVCWKCLD" transform="translate(599.92128, -344.64568) rotate(0)"><polygon points="5.33333,-0.5 7,-3 0,0 7,3 5.33333,0.5" class="solid" transform="translate(0, 0)"/><line x1="5.33333" x2="30"/><text style="dominant-baseline: middle; text-anchor: end" transform="translate(-7, 0)"><tspan>PWM2</tspan></text><text style="text-anchor: start" transform="translate(9, 0)">15</text></g><g data-id="GVCWKCLD" transform="translate(599.92128, -354.64568) rotate(0)"><polygon points="5.33333,-0.5 7,-3 0,0 7,3 5.33333,0.5" class="solid" transform="translate(0, 0)"/><line x1="5.33333" x2="30"/><text style="dominant-baseline: middle; text-anchor: end" transform="translate(-7, 0)"><tspan>VLED2</tspan></text><text style="text-anchor: start" transform="translate(9, 0)">16</text></g><g data-id="GVCWKCLD" transform="translate(599.92128, -364.64568) rotate(0)"><line x2="30"/><text style="dominant-baseline: middle; text-anchor: end" transform="translate(-7, 0)"><tspan>GND</tspan></text><text style="text-anchor: start" transform="translate(9, 0)">17</text></g><g data-id="GVCWKCLD" transform="translate(599.92128, -374.64568) rotate(0)"><polygon points="5.6,-0.5 0,-2.5 0,0 0,2.5 5.6,0.5" class="solid" transform="translate(0, 0)"/><line x1="5.6" x2="30"/><text style="dominant-baseline: middle; text-anchor: end" transform="translate(-7, 0)"><tspan>VCC2</tspan></text><text style="text-anchor: start" transform="translate(9, 0)">18</text></g><g data-id="GVCWKCLD" transform="translate(599.92128, -384.64568) rotate(0)"><polygon points="5.33333,-0.5 7,-3 0,0 7,3 5.33333,0.5" class="solid" transform="translate(0, 0)"/><line x1="5.33333" x2="30"/><text style="dominant-baseline: middle; text-anchor: end" transform="translate(-7, 0)"><tspan>BOOT2</tspan></text><text style="text-anchor: start" transform="translate(9, 0)">19</text></g><g data-id="GVCWKCLD" transform="translate(599.92128, -394.64568) rotate(0)"><polygon points="5.33333,-0.5 7,-3 0,0 7,3 5.33333,0.5" class="solid" transform="translate(0, 0)"/><line x1="5.33333" x2="30"/><text style="dominant-baseline: middle; text-anchor: end" transform="translate(-7, 0)"><tspan>SW2</tspan></text><text style="text-anchor: start" transform="translate(9, 0)">20</text></g><g data-id="GVCWKCLD" transform="translate(599.92128, -404.64568) rotate(0)"><polygon points="5.6,-0.5 0,-2.5 0,0 0,2.5 5.6,0.5" class="solid" transform="translate(0, 0)"/><line x1="5.6" x2="30"/><text style="dominant-baseline: middle; text-anchor: end" transform="translate(-7, 0)"><tspan>GATE2</tspan></text><text style="text-anchor: start" transform="translate(9, 0)">21</text></g><g data-id="GVCWKCLD" transform="translate(599.92128, -414.64568) rotate(0)"><polygon points="5.33333,-0.5 7,-3 0,0 7,3 5.33333,0.5" class="solid" transform="translate(0, 0)"/><line x1="5.33333" x2="30"/><text style="dominant-baseline: middle; text-anchor: end" transform="translate(-7, 0)"><tspan>CSN2</tspan></text><text style="text-anchor: start" transform="translate(9, 0)">22</text></g><g data-id="GVCWKCLD" transform="translate(599.92128, -424.64568) rotate(0)"><polygon points="5.33333,-0.5 7,-3 0,0 7,3 5.33333,0.5" class="solid" transform="translate(0, 0)"/><line x1="5.33333" x2="30"/><text style="dominant-baseline: middle; text-anchor: end" transform="translate(-7, 0)"><tspan>CSP2</tspan></text><text style="text-anchor: start" transform="translate(9, 0)">23</text></g><g data-id="GVCWKCLD" transform="translate(599.92128, -434.64568) rotate(0)"><polygon points="5.33333,-0.5 7,-3 0,0 7,3 5.33333,0.5" class="solid" transform="translate(0, 0)"/><line x1="5.33333" x2="30"/><text style="dominant-baseline: middle; text-anchor: end" transform="translate(-7, 0)"><tspan>EN/UV</tspan></text><text style="text-anchor: start" transform="translate(9, 0)">24</text></g><text class="font1" color="#000080" data-id="GVCWKCLD" transform="translate(509.92128, -444.64568)">U?</text><text class="font1" color="#000080" data-id="GVCWKCLD" transform="translate(509.92128, -304.64568)">LED Driver</text><polygon points="212.047,-347.953 212.047,-407.953 152.047,-377.953" class="solid" stroke-width="3" data-id="DMWYMWYO" style="fill: #0000FF; stroke: #0000FF"/><polyline points="152.047,-347.953 152.047,-407.953" stroke-width="3" color="#0000FF" data-id="DMWYMWYO"/><polyline points="192.047,-407.953 182.047,-417.953" stroke-width="2" color="#0000FF" data-id="DMWYMWYO"/><polygon points="180.047,-419.953 190.047,-416.953 183.047,-410.953" class="solid" stroke-width="1" data-id="DMWYMWYO" style="fill: #0000FF; stroke: #0000FF"/><polyline points="177.047,-400.953 167.047,-410.953" stroke-width="2" color="#0000FF" data-id="DMWYMWYO"/><polygon points="165.047,-412.953 175.047,-409.953 168.047,-403.953" class="solid" stroke-width="1" data-id="DMWYMWYO" style="fill: #0000FF; stroke: #0000FF"/><g data-id="DMWYMWYO" transform="translate(212.04731, -377.95296) rotate(0)"><line x2="30"/><text style="dominant-baseline: middle; text-anchor: end" transform="translate(-7, 0)"/><text style="text-anchor: start" transform="translate(9, 0)">1</text></g><g data-id="DMWYMWYO" transform="translate(152.04731, -377.95296) rotate(-180)"><line x2="30"/><text style="dominant-baseline: middle; text-anchor: start" transform="translate(-7, 0) rotate(-180)"/><text style="text-anchor: end" transform="translate(9, 0) rotate(-180)">2</text></g><text class="font1" color="#000080" data-id="DMWYMWYO" transform="translate(147.04731, -420.95296)">*</text><text class="font1" color="#000080" data-id="DMWYMWYO" transform="translate(147.04731, -332.95296)">XPEBWT-L1-0000-00EE5</text><polyline points="366.142,-405.512 358.268,-405.512 358.268,-421.26" color="#000000" data-id="YZBEOMAS"/><polyline points="354.331,-409.449 354.331,-401.575" color="#000000" data-id="YZBEOMAS"/><polyline points="354.331,-413.386 354.331,-421.26" color="#000000" data-id="YZBEOMAS"/><polyline points="354.331,-425.197 354.331,-433.071" color="#000000" data-id="YZBEOMAS"/><polyline points="358.268,-421.26 358.268,-429.134" color="#000000" data-id="YZBEOMAS"/><polyline points="346.457,-405.512 334.646,-405.512 334.646,-389.764" color="#000000" data-id="YZBEOMAS"/><polyline points="346.457,-429.134 334.646,-429.134 334.646,-444.882" color="#000000" data-id="YZBEOMAS"/><polyline points="334.646,-405.512 334.646,-429.134" color="#000000" data-id="YZBEOMAS"/><polyline points="346.457,-429.134 354.331,-429.134" color="#000000" data-id="YZBEOMAS"/><polyline points="346.457,-405.512 354.331,-405.512" color="#000000" data-id="YZBEOMAS"/><polyline points="346.457,-405.512 346.457,-417.323 354.331,-417.323" color="#000000" data-id="YZBEOMAS"/><polygon points="354.331,-417.323 350.394,-421.26 350.394,-413.386" class="solid" stroke-width="1" data-id="YZBEOMAS" style="fill: #000000; stroke: #000000"/><polygon points="334.646,-421.26 338.583,-413.386 330.709,-413.386" class="solid" stroke-width="1" data-id="YZBEOMAS" style="fill: #000000; stroke: #000000"/><polyline points="342.52,-417.323 338.583,-421.26 330.709,-421.26 326.772,-425.197" color="#000000" data-id="YZBEOMAS"/><g data-id="YZBEOMAS" transform="translate(334.64585, -391.73249) rotate(-270)"><line x2="1"/><text style="text-anchor: end" transform="translate(9, 0) rotate(-180)">S</text></g><g data-id="YZBEOMAS" transform="translate(334.64585, -442.91363) rotate(-90)"><line x2="1"/><text style="text-anchor: start" transform="translate(9, 0)">D</text></g><g data-id="YZBEOMAS" transform="translate(364.17343, -405.51203) rotate(0)"><line x2="1"/><text style="text-anchor: start" transform="translate(9, 0)">G</text></g><text class="font1" color="#000080" data-id="YZBEOMAS" transform="translate(338.58286, -433.0711)">Q?</text><text class="font1" color="#000080" data-id="YZBEOMAS" transform="translate(267.71668, -417.32306)">MOSFET N-CH</text><polyline points="370.079,-381.89 370.079,-374.016" color="#000000" data-id="XOVZACJK"/><polyline points="374.016,-381.89 374.016,-374.016" color="#000000" data-id="XOVZACJK"/><g data-id="XOVZACJK" transform="translate(374.01595, -377.95296) rotate(0)"><line x2="3"/><text style="text-anchor: start" transform="translate(9, 0)">2</text></g><g data-id="XOVZACJK" transform="translate(370.07894, -377.95296) rotate(-180)"><line x2="3"/><text style="text-anchor: end" transform="translate(9, 0) rotate(-180)">1</text></g><text class="font1" color="#000080" data-id="XOVZACJK" transform="translate(369.07894, -382.88997)">C?</text><text class="font1" color="#000080" data-id="XOVZACJK" transform="translate(366.14193, -366.14193)">0.1µF</text><polyline points="440.945,-370.079 448.819,-370.079" color="#000000" data-id="QSVDXJOE"/><polyline points="440.945,-374.016 448.819,-374.016" color="#000000" data-id="QSVDXJOE"/><g data-id="QSVDXJOE" transform="translate(444.88213, -374.01595) rotate(-90)"><line x2="3"/><text style="text-anchor: start" transform="translate(9, 0)">2</text></g><g data-id="QSVDXJOE" transform="translate(444.88213, -370.07894) rotate(-270)"><line x2="3"/><text style="text-anchor: end" transform="translate(9, 0) rotate(-180)">1</text></g><text class="font1" color="#000080" data-id="QSVDXJOE" transform="translate(429.13409, -366.14193)">C?</text><text class="font1" color="#000080" data-id="QSVDXJOE" transform="translate(452.75615, -366.14193)">0.1µF</text><polyline points="433.071,-421.26 429.134,-425.197 437.008,-429.134 429.134,-433.071 437.008,-437.008 433.071,-440.945" color="#000000" data-id="MHLXRNZM"/><g data-id="MHLXRNZM" transform="translate(433.0711, -421.26007) rotate(-270)"><line x2="3"/><text style="text-anchor: end" transform="translate(9, 0) rotate(-180)">1</text></g><g data-id="MHLXRNZM" transform="translate(433.0711, -440.94512) rotate(-90)"><line x2="3"/><text style="text-anchor: start" transform="translate(9, 0)">2</text></g><text class="font1" color="#000080" data-id="MHLXRNZM" transform="translate(437.00811, -425.19708)">R?</text><text class="font1" color="#000080" data-id="MHLXRNZM" transform="translate(437.00811, -417.32306)">Current shunt</text><g color="#800000" data-id="YHGLVTTG" transform="translate(444.88213, -366.14193)"><use xlink:href="#gnd" transform="rotate(-270)"/><text class="font1" style="dominant-baseline: hanging; text-anchor: middle" transform="translate(0, 20)">GND</text></g><polygon points="346.457,-370.079 342.52,-362.205 350.394,-362.205" class="solid" stroke-width="1" data-id="CEXKEEUI" style="fill: #000000; stroke: #000000"/><polyline points="346.457,-358.268 346.457,-374.016" color="#000000" data-id="CEXKEEUI"/><polyline points="342.52,-370.079 350.394,-370.079 350.394,-366.142" color="#000000" data-id="CEXKEEUI"/><polyline points="342.52,-370.079 342.52,-374.016" color="#000000" data-id="CEXKEEUI"/><g data-id="CEXKEEUI" transform="translate(346.45688, -358.26791) rotate(-270)"><line x2="3"/><text style="dominant-baseline: middle; text-anchor: start" transform="translate(-7, 0) rotate(-180)"/><text style="text-anchor: end" transform="translate(9, 0) rotate(-180)">1</text></g><g data-id="CEXKEEUI" transform="translate(346.45688, -374.01595) rotate(-90)"><line x2="3"/><text style="dominant-baseline: middle; text-anchor: end" transform="translate(-7, 0)"/><text style="text-anchor: start" transform="translate(9, 0)">2</text></g><text class="font1" color="#000080" data-id="CEXKEEUI" transform="translate(351.39389, -365.01595)">D?</text><text class="font1" color="#000080" data-id="CEXKEEUI" transform="translate(334.64585, -354.3309)">schottky</text><g color="#800000" data-id="HMABORFP" transform="translate(346.45688, -354.3309)"><use xlink:href="#gnd" transform="rotate(-270)"/><text class="font1" style="dominant-baseline: hanging; text-anchor: middle" transform="translate(0, 20)">GND</text></g><polygon points="413.386,-377.953 421.26,-374.016 421.26,-381.89" class="solid" stroke-width="1" data-id="RUTPJWPY" style="fill: #000000; stroke: #000000"/><polyline points="425.197,-377.953 409.449,-377.953" color="#000000" data-id="RUTPJWPY"/><polyline points="413.386,-374.016 413.386,-381.89 417.323,-381.89" color="#000000" data-id="RUTPJWPY"/><polyline points="413.386,-374.016 409.449,-374.016" color="#000000" data-id="RUTPJWPY"/><g data-id="RUTPJWPY" transform="translate(425.19708, -377.95296) rotate(0)"><line x2="3"/><text style="dominant-baseline: middle; text-anchor: end" transform="translate(-7, 0)"/><text style="text-anchor: start" transform="translate(9, 0)">1</text></g><g data-id="RUTPJWPY" transform="translate(409.44904, -377.95296) rotate(-180)"><line x2="3"/><text style="dominant-baseline: middle; text-anchor: start" transform="translate(-7, 0) rotate(-180)"/><text style="text-anchor: end" transform="translate(9, 0) rotate(-180)">2</text></g><text class="font1" color="#000080" data-id="RUTPJWPY" transform="translate(408.44904, -382.88997)">D?</text><text class="font1" color="#000080" data-id="RUTPJWPY" transform="translate(393.701, -362.20492)">schottky</text><path color="#000000" d="M3.76414,-0.360523 a3.78137,3.78137 0 0,0 -7.53946,0.146542" data-id="CPJCNGKV" transform="translate(287.40173, -377.95296)"/><path color="#000000" d="M3.76414,-0.360523 a3.78137,3.78137 0 0,0 -7.53946,0.146542" data-id="CPJCNGKV" transform="translate(295.27575, -377.95296)"/><path color="#000000" d="M3.76414,-0.360523 a3.78137,3.78137 0 0,0 -7.53946,0.146542" data-id="CPJCNGKV" transform="translate(303.14977, -377.95296)"/><path color="#000000" d="M3.76414,-0.360523 a3.78137,3.78137 0 0,0 -7.53946,0.146542" data-id="CPJCNGKV" transform="translate(311.02379, -377.95296)"/><g data-id="CPJCNGKV" transform="translate(283.46472, -377.95296) rotate(-180)"><line x2="3"/><text style="dominant-baseline: middle; text-anchor: start" transform="translate(-7, 0) rotate(-180)"/><text style="text-anchor: end" transform="translate(9, 0) rotate(-180)">1</text></g><g data-id="CPJCNGKV" transform="translate(314.9608, -377.95296) rotate(0)"><line x2="3"/><text style="dominant-baseline: middle; text-anchor: end" transform="translate(-7, 0)"/><text style="text-anchor: start" transform="translate(9, 0)">2</text></g><text class="font1" color="#000080" data-id="CPJCNGKV" transform="translate(283.62642, -381.73433)">L?</text><text class="font1" color="#000080" data-id="CPJCNGKV" transform="translate(283.62642, -364.95296)">68µH</text><polyline points="479.921,-424.646 479.921,-434.646 480.315,-444.882 433.071,-444.882" stroke-width="1" color="#000080" data-id="FOGIYROU"/><polyline points="433.071,-417.323 433.071,-414.646 433.071,-413.386" stroke-width="1" color="#000080" data-id="REFTTVWE"/><polyline points="479.921,-404.646 366.142,-404.646 366.142,-405.512" stroke-width="1" color="#000080" data-id="ASRGAFHE"/><polyline points="479.921,-414.646 433.071,-414.646 381.89,-414.646 381.89,-444.882 334.646,-444.882" stroke-width="1" color="#000080" data-id="TDBHXLDY"/><polyline points="479.921,-384.646 401.575,-384.646 401.575,-377.953 405.512,-377.953" stroke-width="1" color="#000080" data-id="RTCSNKTH"/><polyline points="377.953,-377.953 401.575,-377.953" stroke-width="1" color="#000080" data-id="MDSTTXWU"/><polyline points="366.142,-377.953 346.457,-377.953 334.646,-377.953 334.646,-389.764 342.52,-389.764 342.52,-394.646 479.921,-394.646" stroke-width="1" color="#000080" data-id="REYCENCJ"/><polyline points="444.882,-366.142 479.921,-366.142 479.921,-364.646" stroke-width="1" color="#000080" data-id="HUOAWWFH"/><polyline points="479.921,-374.646 479.921,-377.953 476.378,-377.953 444.882,-377.953 429.134,-377.953" stroke-width="1" color="#000080" data-id="ATKCCEVI"/><polyline points="334.646,-377.953 318.898,-377.953" stroke-width="1" color="#000080" data-id="KEEUWEQZ"/><polyline points="279.528,-377.953 259.843,-377.953 242.047,-377.953" stroke-width="1" color="#000080" data-id="TXZOEWQK"/><g color="#800000" data-id="YMYWDVTY" transform="translate(122.04731, -377.95296)"><use xlink:href="#gnd" transform="rotate(-270)"/><text class="font1" style="dominant-baseline: hanging; text-anchor: middle" transform="translate(0, 20)">GND</text></g><polyline points="479.921,-354.646 456.693,-354.646 456.693,-322.835 259.843,-322.835 259.843,-377.953" stroke-width="1" color="#000080" data-id="VBCMGBYR"/><polyline points="479.921,-344.646 476.378,-344.646 476.378,-377.953" stroke-width="1" color="#000080" data-id="LLPWZHVG"/><polygon points="897.795,-347.953 897.795,-407.953 957.795,-377.953" class="solid" stroke-width="3" data-id="MDWEJLFY" style="fill: #0000FF; stroke: #0000FF"/><polyline points="957.795,-347.953 957.795,-407.953" stroke-width="3" color="#0000FF" data-id="MDWEJLFY"/><polyline points="917.795,-407.953 927.795,-417.953" stroke-width="2" color="#0000FF" data-id="MDWEJLFY"/><polygon points="929.795,-419.953 919.795,-416.953 926.795,-410.953" class="solid" stroke-width="1" data-id="MDWEJLFY" style="fill: #0000FF; stroke: #0000FF"/><polyline points="932.795,-400.953 942.795,-410.953" stroke-width="2" color="#0000FF" data-id="MDWEJLFY"/><polygon points="944.795,-412.953 934.795,-409.953 941.795,-403.953" class="solid" stroke-width="1" data-id="MDWEJLFY" style="fill: #0000FF; stroke: #0000FF"/><g data-id="MDWEJLFY" transform="translate(897.79525, -377.95296) rotate(-180)"><line x2="30"/><text style="dominant-baseline: middle; text-anchor: start" transform="translate(-7, 0) rotate(-180)"/><text style="text-anchor: end" transform="translate(9, 0) rotate(-180)">1</text></g><g data-id="MDWEJLFY" transform="translate(957.79525, -377.95296) rotate(0)"><line x2="30"/><text style="dominant-baseline: middle; text-anchor: end" transform="translate(-7, 0)"/><text style="text-anchor: start" transform="translate(9, 0)">2</text></g><text class="font1" color="#000080" data-id="MDWEJLFY" transform="translate(892.79525, -420.95296)">*?</text><text class="font1" color="#000080" data-id="MDWEJLFY" transform="translate(892.79525, -332.95296)">XPEBWT-L1-0000-00EE5</text><polyline points="743.701,-405.512 751.575,-405.512 751.575,-421.26" color="#000000" data-id="UAJGSNLO"/><polyline points="755.512,-409.449 755.512,-401.575" color="#000000" data-id="UAJGSNLO"/><polyline points="755.512,-413.386 755.512,-421.26" color="#000000" data-id="UAJGSNLO"/><polyline points="755.512,-425.197 755.512,-433.071" color="#000000" data-id="UAJGSNLO"/><polyline points="751.575,-421.26 751.575,-429.134" color="#000000" data-id="UAJGSNLO"/><polyline points="763.386,-405.512 775.197,-405.512 775.197,-389.764" color="#000000" data-id="UAJGSNLO"/><polyline points="763.386,-429.134 775.197,-429.134 775.197,-444.882" color="#000000" data-id="UAJGSNLO"/><polyline points="775.197,-405.512 775.197,-429.134" color="#000000" data-id="UAJGSNLO"/><polyline points="763.386,-429.134 755.512,-429.134" color="#000000" data-id="UAJGSNLO"/><polyline points="763.386,-405.512 755.512,-405.512" color="#000000" data-id="UAJGSNLO"/><polyline points="763.386,-405.512 763.386,-417.323 755.512,-417.323" color="#000000" data-id="UAJGSNLO"/><polygon points="755.512,-417.323 759.449,-421.26 759.449,-413.386" class="solid" stroke-width="1" data-id="UAJGSNLO" style="fill: #000000; stroke: #000000"/><polygon points="775.197,-421.26 771.26,-413.386 779.134,-413.386" class="solid" stroke-width="1" data-id="UAJGSNLO" style="fill: #000000; stroke: #000000"/><polyline points="767.323,-417.323 771.26,-421.26 779.134,-421.26 783.071,-425.197" color="#000000" data-id="UAJGSNLO"/><g data-id="UAJGSNLO" transform="translate(775.19671, -391.73249) rotate(-270)"><line x2="1"/><text style="text-anchor: end" transform="translate(9, 0) rotate(-180)">S</text></g><g data-id="UAJGSNLO" transform="translate(775.19671, -442.91363) rotate(-90)"><line x2="1"/><text style="text-anchor: start" transform="translate(9, 0)">D</text></g><g data-id="UAJGSNLO" transform="translate(745.66913, -405.51203) rotate(-180)"><line x2="1"/><text style="text-anchor: end" transform="translate(9, 0) rotate(-180)">G</text></g><text class="font1" color="#000080" data-id="UAJGSNLO" transform="translate(784.07073, -435.88213)">Q?</text><text class="font1" color="#000080" data-id="UAJGSNLO" transform="translate(784.07073, -425.88213)">MOSFET N-CH</text><polyline points="739.764,-381.89 739.764,-374.016" color="#000000" data-id="EEQEIGTV"/><polyline points="735.827,-381.89 735.827,-374.016" color="#000000" data-id="EEQEIGTV"/><g data-id="EEQEIGTV" transform="translate(735.82661, -377.95296) rotate(-180)"><line x2="3"/><text style="text-anchor: end" transform="translate(9, 0) rotate(-180)">2</text></g><g data-id="EEQEIGTV" transform="translate(739.76362, -377.95296) rotate(0)"><line x2="3"/><text style="text-anchor: start" transform="translate(9, 0)">1</text></g><text class="font1" color="#000080" data-id="EEQEIGTV" transform="translate(734.82661, -382.88997)">C?</text><text class="font1" color="#000080" data-id="EEQEIGTV" transform="translate(734.82661, -363.01595)">0.1µF</text><polyline points="668.897,-370.079 661.023,-370.079" color="#000000" data-id="QODWAQZI"/><polyline points="668.897,-374.016 661.023,-374.016" color="#000000" data-id="QODWAQZI"/><g data-id="QODWAQZI" transform="translate(664.96043, -374.01595) rotate(-90)"><line x2="3"/><text style="text-anchor: start" transform="translate(9, 0)">2</text></g><g data-id="QODWAQZI" transform="translate(664.96043, -370.07894) rotate(-270)"><line x2="3"/><text style="text-anchor: end" transform="translate(9, 0) rotate(-180)">1</text></g><text class="font1" color="#000080" data-id="QODWAQZI" transform="translate(669.89744, -365.01595)">C?</text><text class="font1" color="#000080" data-id="QODWAQZI" transform="translate(669.89744, -355.01595)">0.1µF</text><polyline points="676.771,-421.26 680.708,-425.197 672.834,-429.134 680.708,-433.071 672.834,-437.008 676.771,-440.945" color="#000000" data-id="XGIZDKNV"/><g data-id="XGIZDKNV" transform="translate(676.77146, -421.26007) rotate(-270)"><line x2="3"/><text style="text-anchor: end" transform="translate(9, 0) rotate(-180)">1</text></g><g data-id="XGIZDKNV" transform="translate(676.77146, -440.94512) rotate(-90)"><line x2="3"/><text style="text-anchor: start" transform="translate(9, 0)">2</text></g><text class="font1" color="#000080" data-id="XGIZDKNV" transform="translate(681.70847, -431.94512)">R?</text><text class="font1" color="#000080" data-id="XGIZDKNV" transform="translate(681.70847, -421.94512)">Current shunt</text><g color="#800000" data-id="MOUPTPWL" transform="translate(664.96043, -366.14193)"><use xlink:href="#gnd" transform="rotate(-270)"/><text class="font1" style="dominant-baseline: hanging; text-anchor: middle" transform="translate(0, 20)">GND</text></g><polygon points="763.386,-370.079 767.323,-362.205 759.449,-362.205" class="solid" stroke-width="1" data-id="GGOMILLY" style="fill: #000000; stroke: #000000"/><polyline points="763.386,-358.268 763.386,-374.016" color="#000000" data-id="GGOMILLY"/><polyline points="767.323,-370.079 759.449,-370.079 759.449,-366.142" color="#000000" data-id="GGOMILLY"/><polyline points="767.323,-370.079 767.323,-374.016" color="#000000" data-id="GGOMILLY"/><g data-id="GGOMILLY" transform="translate(763.38568, -358.26791) rotate(-270)"><line x2="3"/><text style="dominant-baseline: middle; text-anchor: start" transform="translate(-7, 0) rotate(-180)"/><text style="text-anchor: end" transform="translate(9, 0) rotate(-180)">1</text></g><g data-id="GGOMILLY" transform="translate(763.38568, -374.01595) rotate(-90)"><line x2="3"/><text style="dominant-baseline: middle; text-anchor: end" transform="translate(-7, 0)"/><text style="text-anchor: start" transform="translate(9, 0)">2</text></g><text class="font1" color="#000080" data-id="GGOMILLY" transform="translate(768.32269, -365.01595)">D?</text><text class="font1" color="#000080" data-id="GGOMILLY" transform="translate(768.32269, -355.01595)">schottky</text><g color="#800000" data-id="CZSCLKQK" transform="translate(763.38568, -354.3309)"><use xlink:href="#gnd" transform="rotate(-270)"/><text class="font1" style="dominant-baseline: hanging; text-anchor: middle" transform="translate(0, 20)">GND</text></g><polygon points="696.457,-377.953 688.582,-374.016 688.582,-381.89" class="solid" stroke-width="1" data-id="WNEYDOHG" style="fill: #000000; stroke: #000000"/><polyline points="684.645,-377.953 700.394,-377.953" color="#000000" data-id="WNEYDOHG"/><polyline points="696.457,-374.016 696.457,-381.89 692.519,-381.89" color="#000000" data-id="WNEYDOHG"/><polyline points="696.457,-374.016 700.394,-374.016" color="#000000" data-id="WNEYDOHG"/><g data-id="WNEYDOHG" transform="translate(684.64548, -377.95296) rotate(-180)"><line x2="3"/><text style="dominant-baseline: middle; text-anchor: start" transform="translate(-7, 0) rotate(-180)"/><text style="text-anchor: end" transform="translate(9, 0) rotate(-180)">1</text></g><g data-id="WNEYDOHG" transform="translate(700.39352, -377.95296) rotate(0)"><line x2="3"/><text style="dominant-baseline: middle; text-anchor: end" transform="translate(-7, 0)"/><text style="text-anchor: start" transform="translate(9, 0)">2</text></g><text class="font1" color="#000080" data-id="WNEYDOHG" transform="translate(683.64548, -382.88997)">D?</text><text class="font1" color="#000080" data-id="WNEYDOHG" transform="translate(683.64548, -363.01595)">schottky</text><path color="#000000" d="M3.77531,-0.213981 a3.78137,3.78137 0 0,0 -7.53946,-0.146542" data-id="YHHLPSRE" transform="translate(822.44083, -377.95296)"/><path color="#000000" d="M3.77531,-0.213981 a3.78137,3.78137 0 0,0 -7.53946,-0.146542" data-id="YHHLPSRE" transform="translate(814.56681, -377.95296)"/><path color="#000000" d="M3.77531,-0.213981 a3.78137,3.78137 0 0,0 -7.53946,-0.146542" data-id="YHHLPSRE" transform="translate(806.69279, -377.95296)"/><path color="#000000" d="M3.77531,-0.213981 a3.78137,3.78137 0 0,0 -7.53946,-0.146542" data-id="YHHLPSRE" transform="translate(798.81877, -377.95296)"/><g data-id="YHHLPSRE" transform="translate(826.37784, -377.95296) rotate(0)"><line x2="3"/><text style="dominant-baseline: middle; text-anchor: end" transform="translate(-7, 0)"/><text style="text-anchor: start" transform="translate(9, 0)">1</text></g><g data-id="YHHLPSRE" transform="translate(794.88176, -377.95296) rotate(-180)"><line x2="3"/><text style="dominant-baseline: middle; text-anchor: start" transform="translate(-7, 0) rotate(-180)"/><text style="text-anchor: end" transform="translate(9, 0) rotate(-180)">2</text></g><text class="font1" color="#000080" data-id="YHHLPSRE" transform="translate(795.05463, -381.73433)">L?</text><text class="font1" color="#000080" data-id="YHHLPSRE" transform="translate(795.05463, -364.95296)">68µH</text><polyline points="676.771,-417.323 676.771,-414.646 676.772,-413.386" stroke-width="1" color="#000080" data-id="EVEAEKHK"/><polyline points="629.921,-404.646 743.701,-404.646 743.701,-405.512" stroke-width="1" color="#000080" data-id="TWMKMMEG"/><polyline points="629.921,-414.646 676.771,-414.646 727.953,-414.646 727.953,-444.882 775.197,-444.882" stroke-width="1" color="#000080" data-id="UWWQRSVV"/><polyline points="629.921,-384.646 708.268,-384.646 708.268,-377.953 704.331,-377.953" stroke-width="1" color="#000080" data-id="ACIBBSER"/><polyline points="731.89,-377.953 708.268,-377.953" stroke-width="1" color="#000080" data-id="POMWUFVO"/><polyline points="743.701,-377.953 763.386,-377.953 775.197,-377.953 775.197,-389.764 767.323,-389.764 767.323,-394.646 629.921,-394.646" stroke-width="1" color="#000080" data-id="MWZPSNNY"/><polyline points="664.96,-366.142 629.921,-366.142 629.921,-364.646" stroke-width="1" color="#000080" data-id="ZFCQUARL"/><polyline points="629.921,-374.646 629.921,-377.953 633.464,-377.953 664.96,-377.953 680.708,-377.953" stroke-width="1" color="#000080" data-id="ZIZCCGJA"/><polyline points="775.197,-377.953 790.945,-377.953" stroke-width="1" color="#000080" data-id="SUVYZHMO"/><polyline points="830.315,-377.953 850,-377.953 867.795,-377.953" stroke-width="1" color="#000080" data-id="BHEUSFCM"/><g color="#800000" data-id="PKBVQOXO" transform="translate(987.79525, -377.95296)"><use xlink:href="#gnd" transform="rotate(-270)"/><text class="font1" style="dominant-baseline: hanging; text-anchor: middle" transform="translate(0, 20)">GND</text></g><polyline points="629.921,-354.646 653.149,-354.646 653.149,-322.835 850,-322.835 850,-377.953" stroke-width="1" color="#000080" data-id="WAXLGTMF"/><polyline points="629.921,-344.646 633.464,-344.646 633.464,-377.953" stroke-width="1" color="#000080" data-id="NZXYSPYR"/><polyline points="676.771,-444.882 661.418,-444.882 661.418,-424.646 629.921,-424.646" stroke-width="1" color="#000080" data-id="WHKNWFND"/><polyline points="633.464,-377.953 633.464,-434.646 629.921,-434.646" stroke-width="1" color="#000080" data-id="WYBXMYWK"/><polyline points="480.315,-444.882 480.315,-468.504 661.418,-468.504 661.418,-444.882" stroke-width="1" color="#000080" data-id="YUKRICHR"/><circle r="2" class="solid" cx="259.843" cy="-377.953" style="fill: #800000"/><circle r="2" class="solid" cx="334.646" cy="-377.953" style="fill: #800000"/><circle r="2" class="solid" cx="334.646" cy="-389.764" style="fill: #800000"/><circle r="2" class="solid" cx="346.457" cy="-377.953" style="fill: #800000"/><circle r="2" class="solid" cx="401.575" cy="-377.953" style="fill: #800000"/><circle r="2" class="solid" cx="433.071" cy="-414.646" style="fill: #800000"/><circle r="2" class="solid" cx="444.882" cy="-366.142" style="fill: #800000"/><circle r="2" class="solid" cx="444.882" cy="-377.953" style="fill: #800000"/><circle r="2" class="solid" cx="476.378" cy="-377.953" style="fill: #800000"/><circle r="2" class="solid" cx="479.921" cy="-434.646" style="fill: #800000"/><circle r="2" class="solid" cx="480.315" cy="-444.882" style="fill: #800000"/><circle r="2" class="solid" cx="633.464" cy="-377.953" style="fill: #800000"/><circle r="2" class="solid" cx="661.418" cy="-444.882" style="fill: #800000"/><circle r="2" class="solid" cx="664.96" cy="-366.142" style="fill: #800000"/><circle r="2" class="solid" cx="664.96" cy="-377.953" style="fill: #800000"/><circle r="2" class="solid" cx="676.771" cy="-414.646" style="fill: #800000"/><circle r="2" class="solid" cx="708.268" cy="-377.953" style="fill: #800000"/><circle r="2" class="solid" cx="763.386" cy="-377.953" style="fill: #800000"/><circle r="2" class="solid" cx="775.197" cy="-377.953" style="fill: #800000"/><circle r="2" class="solid" cx="775.197" cy="-389.764" style="fill: #800000"/><circle r="2" class="solid" cx="850" cy="-377.953" style="fill: #800000"/></svg>