<svg class="schematic_svg" xmlns="http://www.w3.org/2000/svg" xmlns:xlink="http://www.w3.org/1999/xlink" width="153.0mm" height="102.19999999999999mm" viewBox="25.099999999999998,-127.3 153.0,102.19999999999999" stroke-width="1"><style type="text/css">.schematic_svg .outline, .schematic_svg path, .schematic_svg line, .schematic_svg polyline {
  stroke: currentColor;
  stroke-linecap: round;
  fill: none;
}
.schematic_svg .solid {
  fill: currentColor;
  stroke: none;
}
.schematic_svg text {
  dominant-baseline: text-after-edge;
  fill: currentColor;
}
</style><g stroke-linecap="round" stroke-linejoin="round"><polygon points="119.7,-74.3 119.7,-85.3 104.3,-85.3 104.3,-74.3" class="outline" stroke-width="0.2" style="stroke: #404040B3"/><polygon points="72.7,-73.3 72.7,-84.3 57.3,-84.3 57.3,-73.3" class="outline" stroke-width="0.2" style="stroke: #404040B3"/><polygon points="117.5,-58 119.7,-58 119.7,-53 115.3,-53 115.3,-58" class="outline" stroke-width="0.2" style="stroke: #404040B3"/><polygon points="64,-49.5 64,-51.7 69,-51.7 69,-47.3 64,-47.3" class="outline" stroke-width="0.2" style="stroke: #404040B3"/><polygon points="97.8,-37.1 101.2,-37.1 101.2,-43.9 97.8,-43.9" class="outline" stroke-width="0.2" style="stroke: #404040B3"/><polygon points="105.8,-35.1 109.2,-35.1 109.2,-41.9 105.8,-41.9" class="outline" stroke-width="0.2" style="stroke: #404040B3"/><polygon points="66.8,-34.3 70.2,-34.3 70.2,-41.1 66.8,-41.1" class="outline" stroke-width="0.2" style="stroke: #404040B3"/><polygon points="79.8,-34.1 83.2,-34.1 83.2,-40.9 79.8,-40.9" class="outline" stroke-width="0.2" style="stroke: #404040B3"/><polygon points="98.2,-73.4 98.2,-77.6 90.6,-77.6 90.6,-73.4" class="outline" stroke-width="0.2" style="stroke: #404040B3"/><polygon points="86.4,-73.4 86.4,-77.6 78.8,-77.6 78.8,-73.4" class="outline" stroke-width="0.2" style="stroke: #404040B3"/><polygon points="86.7,-63.35 90.1,-63.35 90.1,-55.55 86.7,-55.55" class="outline" stroke-width="0.2" style="stroke: #404040B3"/><polygon points="58.4,-57.4 58.4,-69.5 70.6,-69.5 70.6,-55.5 58.4,-55.5" class="outline" stroke-width="0.2" style="stroke: #404040B3"/><polygon points="99.4,-57.4 99.4,-69.5 111.6,-69.5 111.6,-55.5 99.4,-55.5" class="outline" stroke-width="0.2" style="stroke: #404040B3"/><polygon points="78.3,-63.7 80.7,-63.7 80.7,-68.3 78.3,-68.3" class="outline" stroke-width="0.2" style="stroke: #404040B3"/><polygon points="95.3,-63.2 97.7,-63.2 97.7,-67.8 95.3,-67.8" class="outline" stroke-width="0.2" style="stroke: #404040B3"/><polygon points="78.3,-54.7 80.7,-54.7 80.7,-59.3 78.3,-59.3" class="outline" stroke-width="0.2" style="stroke: #404040B3"/><polygon points="95.3,-59.8 97.7,-59.8 97.7,-55.2 95.3,-55.2" class="outline" stroke-width="0.2" style="stroke: #404040B3"/><polygon points="87,-63.05 87.5,-63.05 87,-62.55" class="outline" stroke-width="0.0999998" style="stroke: #404040B3"/><polygon points="119.7,-74.3 119.7,-85.3 104.3,-85.3 104.3,-74.3" class="outline" stroke-width="0.2" style="stroke: #404040B3"/><polygon points="72.7,-73.3 72.7,-84.3 57.3,-84.3 57.3,-73.3" class="outline" stroke-width="0.2" style="stroke: #404040B3"/><polygon points="117.5,-58 119.7,-58 119.7,-53 115.3,-53 115.3,-58" class="outline" stroke-width="0.2" style="stroke: #404040B3"/><polygon points="64,-49.5 64,-51.7 69,-51.7 69,-47.3 64,-47.3" class="outline" stroke-width="0.2" style="stroke: #404040B3"/><polygon points="97.8,-37.1 101.2,-37.1 101.2,-43.9 97.8,-43.9" class="outline" stroke-width="0.2" style="stroke: #404040B3"/><polygon points="105.8,-35.1 109.2,-35.1 109.2,-41.9 105.8,-41.9" class="outline" stroke-width="0.2" style="stroke: #404040B3"/><polygon points="66.8,-34.3 70.2,-34.3 70.2,-41.1 66.8,-41.1" class="outline" stroke-width="0.2" style="stroke: #404040B3"/><polygon points="79.8,-34.1 83.2,-34.1 83.2,-40.9 79.8,-40.9" class="outline" stroke-width="0.2" style="stroke: #404040B3"/><polygon points="98.2,-73.4 98.2,-77.6 90.6,-77.6 90.6,-73.4" class="outline" stroke-width="0.2" style="stroke: #404040B3"/><polygon points="86.4,-73.4 86.4,-77.6 78.8,-77.6 78.8,-73.4" class="outline" stroke-width="0.2" style="stroke: #404040B3"/><polygon points="86.7,-63.35 90.1,-63.35 90.1,-55.55 86.7,-55.55" class="outline" stroke-width="0.2" style="stroke: #404040B3"/><polygon points="58.4,-57.4 58.4,-69.5 70.6,-69.5 70.6,-55.5 58.4,-55.5" class="outline" stroke-width="0.2" style="stroke: #404040B3"/><polygon points="99.4,-57.4 99.4,-69.5 111.6,-69.5 111.6,-55.5 99.4,-55.5" class="outline" stroke-width="0.2" style="stroke: #404040B3"/><polygon points="78.3,-63.7 80.7,-63.7 80.7,-68.3 78.3,-68.3" class="outline" stroke-width="0.2" style="stroke: #404040B3"/><polygon points="95.3,-63.2 97.7,-63.2 97.7,-67.8 95.3,-67.8" class="outline" stroke-width="0.2" style="stroke: #404040B3"/><polygon points="78.3,-54.7 80.7,-54.7 80.7,-59.3 78.3,-59.3" class="outline" stroke-width="0.2" style="stroke: #404040B3"/><polygon points="95.3,-59.8 97.7,-59.8 97.7,-55.2 95.3,-55.2" class="outline" stroke-width="0.2" style="stroke: #404040B3"/><polygon points="87,-63.05 87.5,-63.05 87,-62.55" class="outline" stroke-width="0.0999998" style="stroke: #404040B3"/><polyline points="91.3,-61.75 91.344,-61.794 92.8512,-61.794 93,-61.9428 93,-72" stroke-width="0.254" color="#404040B3"/><polyline points="77.5,-60.5 77.5368,-60.5 78.2368,-59.8 85.5,-59.8" stroke-width="0.254" color="#404040B3"/><polyline points="77.5,-67.5 79.5,-67.5" stroke-width="0.254" color="#404040B3"/><polyline points="58.5,-74.5 61.5,-74.5 64,-77 71.5,-77 74.5,-74 74.5,-68.5 77,-66 80.5,-66 83,-63.5 83,-61.6488 83.5488,-61.1 85.5,-61.1" stroke-width="0.254" color="#404040B3"/><polyline points="64.5,-67.5 65.75,-67.5 72.5,-67.5 75.5,-64.5 79.5,-64.5 79.95,-64.5 80.223,-64.227 80.223,-62.777 82.55,-60.45 85.5,-60.45" stroke-width="0.254" color="#404040B3"/><polyline points="65.75,-67.5 67.023,-68.773 67.023,-70.023 71.5,-74.5" stroke-width="0.254" color="#404040B3"/><polyline points="79.7,-75.5 79.7,-74.3 79.377,-73.977 77.977,-73.977 76,-72 78.0683,-69.9317 78.8571,-69.9317 84,-64.7888 84,-62.3862 84.5922,-61.794 85.456,-61.794 85.5,-61.75" stroke-width="0.254" color="#404040B3"/><polyline points="118.5,-75.5 110.5,-67.5 105.5,-67.5 100,-67.5 98.5,-69 96,-69 95,-68 95,-66.525 95.777,-65.748 95.777,-64.273 96.05,-64 96.5,-64" stroke-width="0.254" color="#404040B3"/><polyline points="96.05,-64 94.4458,-62.3958 94.4458,-61.9518 92.944,-60.45 91.3,-60.45" stroke-width="0.254" color="#404040B3"/><polyline points="91.3,-61.1 92.8756,-61.1 93.9378,-62.1622 93.9378,-70.4378 95,-71.5 95,-77 96.5,-78.5 99.5,-78.5 102.5,-75.5 105.5,-75.5" stroke-width="0.254" color="#404040B3"/><polyline points="97.3,-72.2 97.3,-74.3 97.3,-75.5" stroke-width="0.254" color="#404040B3"/><polyline points="97.3,-74.3 97.623,-73.977 101.023,-73.977 102,-73 109.5,-73 112,-75.5" stroke-width="0.254" color="#404040B3"/><polyline points="83,-55.5 83.1944,-55.6944 83.1944,-56.4082 84.5922,-57.806 85.456,-57.806 85.5,-57.85" stroke-width="0.254" color="#404040B3"/><polyline points="67.9,-49.5 68.3,-49.5 73.05,-49.5 79.05,-55.5 79.5,-55.5 79.95,-55.5 81.072,-55.5 84.072,-58.5 85.5,-58.5 91.3,-58.5 93.578,-58.5 94.078,-59 96.5,-59" stroke-width="0.254" color="#404040B3"/><polyline points="79.95,-55.5 81.35,-54.1 117.5,-54.1" stroke-width="0.254" color="#404040B3"/><polyline points="65.1,-49.5 65.1,-50.9 64.5,-51.5 64.5,-57.4 75.9,-57.4" stroke-width="0.254" color="#404040B3"/><polyline points="91.3,-57.85 105.05,-57.85 105.5,-57.4 115.6,-57.4 116.1,-56.9 117.5,-56.9" stroke-width="0.254" color="#404040B3"/><polyline points="91.3,-57.2 93.228,-57.2 94.428,-56 96.5,-56" stroke-width="0.254" color="#404040B3"/><polyline points="96.5,-67 97.8512,-67 98,-66.8512 98,-63.7112 94.0888,-59.8 91.3,-59.8" stroke-width="0.254" color="#404040B3"/><polyline points="91.3,-62.4 85.5,-62.4 85.5,-63.05 85.5,-75.5 91.5,-75.5" stroke-width="0.254" color="#404040B3"/><polyline points="79.5,-58.5 82.3,-58.5 82.95,-59.15 85.5,-59.15" stroke-width="0.254" color="#404040B3"/><polyline points="77.5,-60.5 77.5,-67.5" stroke-width="0.254" color="#404040B3"/><polyline points="93,-72 93.1,-72.1 97.2,-72.1 97.3,-72.2" stroke-width="0.254" color="#404040B3"/><polyline points="65,-74.5 67.5,-72 76,-72" stroke-width="0.254" color="#404040B3"/><polyline points="75.9,-57.4 76,-57.5 76.1,-57.4 81.1,-57.4 83,-55.5" stroke-width="0.254" color="#404040B3"/><rect x="117.3" y="-57.55" width="0.399999" height="0.499999" class="solid" style="fill: #404040B3" transform="rotate(-270,117.5,-57.3)"/><rect x="117.3" y="-53.95" width="0.399999" height="0.499999" class="solid" style="fill: #404040B3" transform="rotate(-270,117.5,-53.7)"/><rect x="116.85" y="-57.15" width="1.3" height="3.3" class="solid" style="fill: #404040B3" transform="rotate(-270,117.5,-55.5)"/><rect x="117.25" y="-55.75" width="0.499999" height="3.3" class="solid" style="fill: #404040B3" transform="rotate(-270,117.5,-54.1)"/><rect x="117.25" y="-58.55" width="0.499999" height="3.3" class="solid" style="fill: #404040B3" transform="rotate(-270,117.5,-56.9)"/><rect x="64.5" y="-49.75" width="0.399999" height="0.499999" class="solid" style="fill: #404040B3"/><rect x="68.1" y="-49.75" width="0.399999" height="0.499999" class="solid" style="fill: #404040B3"/><rect x="65.85" y="-51.15" width="1.3" height="3.3" class="solid" style="fill: #404040B3"/><rect x="67.65" y="-51.15" width="0.499999" height="3.3" class="solid" style="fill: #404040B3"/><rect x="64.85" y="-51.15" width="0.499999" height="3.3" class="solid" style="fill: #404040B3"/><rect x="98.8" y="-43.95" width="1.4" height="2.5" class="solid" style="fill: #404040B3" transform="rotate(-90,99.5,-42.7)"/><rect x="98.8" y="-39.55" width="1.4" height="2.5" class="solid" style="fill: #404040B3" transform="rotate(-90,99.5,-38.3)"/><rect x="106.8" y="-41.95" width="1.4" height="2.5" class="solid" style="fill: #404040B3" transform="rotate(-90,107.5,-40.7)"/><rect x="106.8" y="-37.55" width="1.4" height="2.5" class="solid" style="fill: #404040B3" transform="rotate(-90,107.5,-36.3)"/><rect x="67.8" y="-41.15" width="1.4" height="2.5" class="solid" style="fill: #404040B3" transform="rotate(-90,68.5,-39.9)"/><rect x="67.8" y="-36.75" width="1.4" height="2.5" class="solid" style="fill: #404040B3" transform="rotate(-90,68.5,-35.5)"/><rect x="80.8" y="-40.95" width="1.4" height="2.5" class="solid" style="fill: #404040B3" transform="rotate(-90,81.5,-39.7)"/><rect x="80.8" y="-36.55" width="1.4" height="2.5" class="solid" style="fill: #404040B3" transform="rotate(-90,81.5,-35.3)"/><rect x="91.05" y="-77.15" width="0.900001" height="3.3" class="solid" style="fill: #404040B3" transform="rotate(-180,91.5,-75.5)"/><rect x="96.85" y="-77.15" width="0.900001" height="3.3" class="solid" style="fill: #404040B3" transform="rotate(-180,97.3,-75.5)"/><rect x="79.25" y="-77.15" width="0.900001" height="3.3" class="solid" style="fill: #404040B3" transform="rotate(-180,79.7,-75.5)"/><rect x="85.05" y="-77.15" width="0.900001" height="3.3" class="solid" style="fill: #404040B3" transform="rotate(-180,85.5,-75.5)"/><rect x="90.55" y="-63.25" width="1.5" height="0.399999" class="solid" style="fill: #404040B3"/><rect x="84.75" y="-63.25" width="1.5" height="0.399999" class="solid" style="fill: #404040B3"/><rect x="84.75" y="-62.6" width="1.5" height="0.399999" class="solid" style="fill: #404040B3"/><rect x="90.55" y="-62.6" width="1.5" height="0.399999" class="solid" style="fill: #404040B3"/><rect x="84.75" y="-61.95" width="1.5" height="0.399999" class="solid" style="fill: #404040B3"/><rect x="90.55" y="-61.95" width="1.5" height="0.399999" class="solid" style="fill: #404040B3"/><rect x="84.75" y="-61.3" width="1.5" height="0.399999" class="solid" style="fill: #404040B3"/><rect x="90.55" y="-61.3" width="1.5" height="0.399999" class="solid" style="fill: #404040B3"/><rect x="84.75" y="-60.65" width="1.5" height="0.399999" class="solid" style="fill: #404040B3"/><rect x="90.55" y="-60.65" width="1.5" height="0.399999" class="solid" style="fill: #404040B3"/><rect x="84.75" y="-60" width="1.5" height="0.399999" class="solid" style="fill: #404040B3"/><rect x="90.55" y="-60" width="1.5" height="0.399999" class="solid" style="fill: #404040B3"/><rect x="84.75" y="-59.35" width="1.5" height="0.399999" class="solid" style="fill: #404040B3"/><rect x="90.55" y="-59.35" width="1.5" height="0.399999" class="solid" style="fill: #404040B3"/><rect x="84.75" y="-58.7" width="1.5" height="0.399999" class="solid" style="fill: #404040B3"/><rect x="90.55" y="-58.7" width="1.5" height="0.399999" class="solid" style="fill: #404040B3"/><rect x="84.75" y="-58.05" width="1.5" height="0.399999" class="solid" style="fill: #404040B3"/><rect x="90.55" y="-58.05" width="1.5" height="0.399999" class="solid" style="fill: #404040B3"/><rect x="84.75" y="-57.4" width="1.5" height="0.399999" class="solid" style="fill: #404040B3"/><rect x="90.55" y="-57.4" width="1.5" height="0.399999" class="solid" style="fill: #404040B3"/><rect x="84.75" y="-56.75" width="1.5" height="0.399999" class="solid" style="fill: #404040B3"/><rect x="90.55" y="-56.75" width="1.5" height="0.399999" class="solid" style="fill: #404040B3"/><rect x="84.75" y="-56.1" width="1.5" height="0.399999" class="solid" style="fill: #404040B3"/><rect x="90.55" y="-56.1" width="1.5" height="0.399999" class="solid" style="fill: #404040B3"/><rect x="61.85" y="-68.9" width="5.3" height="2.8" class="solid" style="fill: #404040B3"/><rect x="61.85" y="-58.8" width="5.3" height="2.8" class="solid" style="fill: #404040B3"/><rect x="102.85" y="-68.9" width="5.3" height="2.8" class="solid" style="fill: #404040B3"/><rect x="102.85" y="-58.8" width="5.3" height="2.8" class="solid" style="fill: #404040B3"/><rect x="79.1" y="-65.35" width="0.800001" height="1.7" class="solid" style="fill: #404040B3" transform="rotate(-90,79.5,-64.5)"/><rect x="79.1" y="-68.35" width="0.800001" height="1.7" class="solid" style="fill: #404040B3" transform="rotate(-90,79.5,-67.5)"/><rect x="96.1" y="-64.85" width="0.800001" height="1.7" class="solid" style="fill: #404040B3" transform="rotate(-90,96.5,-64)"/><rect x="96.1" y="-67.85" width="0.800001" height="1.7" class="solid" style="fill: #404040B3" transform="rotate(-90,96.5,-67)"/><rect x="79.1" y="-56.35" width="0.800001" height="1.7" class="solid" style="fill: #404040B3" transform="rotate(-90,79.5,-55.5)"/><rect x="79.1" y="-59.35" width="0.800001" height="1.7" class="solid" style="fill: #404040B3" transform="rotate(-90,79.5,-58.5)"/><rect x="96.1" y="-59.85" width="0.800001" height="1.7" class="solid" style="fill: #404040B3" transform="rotate(-270,96.5,-59)"/><rect x="96.1" y="-56.85" width="0.800001" height="1.7" class="solid" style="fill: #404040B3" transform="rotate(-270,96.5,-56)"/><circle r="0.57" class="solid" cx="118.5" cy="-75.5" style="fill: #8C8C8CB3"/><mask id="m0"><rect x="25.1" y="-127.3" width="100%" height="100%" fill="white"/><circle r="0.57" cx="118.5" cy="-75.5" fill="black"/></mask><circle r="0.75" class="solid" cx="118.5" cy="-75.5" mask="url(#m0)" style="fill: #404040B3"/><circle r="0.57" class="solid" cx="112" cy="-75.5" style="fill: #8C8C8CB3"/><mask id="m1"><rect x="25.1" y="-127.3" width="100%" height="100%" fill="white"/><circle r="0.57" cx="112" cy="-75.5" fill="black"/></mask><circle r="0.75" class="solid" cx="112" cy="-75.5" mask="url(#m1)" style="fill: #404040B3"/><circle r="0.57" class="solid" cx="105.5" cy="-75.5" style="fill: #8C8C8CB3"/><mask id="m2"><rect x="25.1" y="-127.3" width="100%" height="100%" fill="white"/><circle r="0.57" cx="105.5" cy="-75.5" fill="black"/></mask><circle r="0.75" class="solid" cx="105.5" cy="-75.5" mask="url(#m2)" style="fill: #404040B3"/><circle r="0.57" class="solid" cx="71.5" cy="-74.5" style="fill: #8C8C8CB3"/><mask id="m3"><rect x="25.1" y="-127.3" width="100%" height="100%" fill="white"/><circle r="0.57" cx="71.5" cy="-74.5" fill="black"/></mask><circle r="0.75" class="solid" cx="71.5" cy="-74.5" mask="url(#m3)" style="fill: #404040B3"/><circle r="0.57" class="solid" cx="65" cy="-74.5" style="fill: #8C8C8CB3"/><mask id="m4"><rect x="25.1" y="-127.3" width="100%" height="100%" fill="white"/><circle r="0.57" cx="65" cy="-74.5" fill="black"/></mask><circle r="0.75" class="solid" cx="65" cy="-74.5" mask="url(#m4)" style="fill: #404040B3"/><circle r="0.57" class="solid" cx="58.5" cy="-74.5" style="fill: #8C8C8CB3"/><mask id="m5"><rect x="25.1" y="-127.3" width="100%" height="100%" fill="white"/><circle r="0.57" cx="58.5" cy="-74.5" fill="black"/></mask><circle r="0.75" class="solid" cx="58.5" cy="-74.5" mask="url(#m5)" style="fill: #404040B3"/><circle r="0.3556" class="solid" cx="77.5" cy="-60.5" style="fill: #8C8C8CB3"/><circle r="0.4953" class="outline" stroke-width="0.2794" cx="77.5" cy="-60.5" style="stroke: #404040B3"/><circle r="0.3556" class="solid" cx="77.5" cy="-67.5" style="fill: #8C8C8CB3"/><circle r="0.4953" class="outline" stroke-width="0.2794" cx="77.5" cy="-67.5" style="stroke: #404040B3"/><circle r="0.3556" class="solid" cx="93" cy="-72" style="fill: #8C8C8CB3"/><circle r="0.4953" class="outline" stroke-width="0.2794" cx="93" cy="-72" style="stroke: #404040B3"/><circle r="0.3556" class="solid" cx="97.3" cy="-72.2" style="fill: #8C8C8CB3"/><circle r="0.4953" class="outline" stroke-width="0.2794" cx="97.3" cy="-72.2" style="stroke: #404040B3"/><circle r="0.3556" class="solid" cx="76" cy="-72" style="fill: #8C8C8CB3"/><circle r="0.4953" class="outline" stroke-width="0.2794" cx="76" cy="-72" style="stroke: #404040B3"/><circle r="0.3556" class="solid" cx="83" cy="-55.5" style="fill: #8C8C8CB3"/><circle r="0.4953" class="outline" stroke-width="0.2794" cx="83" cy="-55.5" style="stroke: #404040B3"/><circle r="0.3556" class="solid" cx="75.9" cy="-57.4" style="fill: #8C8C8CB3"/><circle r="0.4953" class="outline" stroke-width="0.2794" cx="75.9" cy="-57.4" style="stroke: #404040B3"/></g></svg>