<svg class="schematic_svg" xmlns="http://www.w3.org/2000/svg" xmlns:xlink="http://www.w3.org/1999/xlink" width="13.256in" height="5.206in" viewBox="-0.3,-520.3 1325.6,520.6" stroke-width="1"><style type="text/css">.schematic_svg .outline, .schematic_svg path, .schematic_svg line, .schematic_svg polyline {
  stroke: currentColor;
  stroke-linecap: round;
  fill: none;
}
.schematic_svg .solid {
  fill: currentColor;
  stroke: none;
}
.schematic_svg text {
  dominant-baseline: text-after-edge;
  fill: currentColor;
}
.font2 {
  font-size: 8.75px;
  font-family: Times New Roman;
  text-decoration: underline;
}
text, .font1 {
  font-size: 8.75px;
  font-family: Times New Roman;
}
</style><defs><g id="gnd"><line x2="10"/><line y1="7" y2="-7" stroke-width="1.5" transform="translate(10, 0)"/><line y1="4" y2="-4" stroke-width="1.5" transform="translate(13, 0)"/><line y1="1" y2="-1" stroke-width="1.5" transform="translate(16, 0)"/></g><g id="rail"><line x2="10"/><line y1="7" y2="-7" stroke-width="1.5" transform="translate(10, 0)"/></g><g id="arrowconn"><polygon points="-5.33333,-0.5 -7,-3 0,0 -7,3 -5.33333,0.5" class="solid" transform="translate(10, 0)"/><line x2="4.66667"/></g><g id="dchevron"><line x2="5"/><polyline points="8,-4 5,0 8,4"/><polyline points="11,-4 8,0 11,4"/></g><g id="nc"><line x1="3" y1="-3" x2="-3" y2="3" stroke-width="0.6"/><line x1="-3" y1="-3" x2="3" y2="3" stroke-width="0.6"/></g><g id="clock"><polyline points="0,-3 -5,0 0,3" stroke-width="0.6"/></g></defs><g transform="translate(0, -520)"><rect width="1325" height="520" class="outline" stroke-width="0.6" style="fill: #FFFCF8"/><rect x="20" y="20" width="1285" height="480" class="outline" stroke-width="0.6"/><g transform="translate(165.625, 10)"><text style="dominant-baseline: middle; text-anchor: middle">1</text><line y1="10" y2="-10" stroke-width="0.6" transform="translate(165.625, 0)"/></g><g transform="translate(496.875, 10)"><text style="dominant-baseline: middle; text-anchor: middle">2</text><line y1="10" y2="-10" stroke-width="0.6" transform="translate(165.625, 0)"/></g><g transform="translate(828.125, 10)"><text style="dominant-baseline: middle; text-anchor: middle">3</text><line y1="10" y2="-10" stroke-width="0.6" transform="translate(165.625, 0)"/></g><g transform="translate(1159.375, 10)"><text style="dominant-baseline: middle; text-anchor: middle">4</text></g><g transform="translate(165.625, 510)"><text style="dominant-baseline: middle; text-anchor: middle">1</text><line y1="10" y2="-10" stroke-width="0.6" transform="translate(165.625, 0)"/></g><g transform="translate(496.875, 510)"><text style="dominant-baseline: middle; text-anchor: middle">2</text><line y1="10" y2="-10" stroke-width="0.6" transform="translate(165.625, 0)"/></g><g transform="translate(828.125, 510)"><text style="dominant-baseline: middle; text-anchor: middle">3</text><line y1="10" y2="-10" stroke-width="0.6" transform="translate(165.625, 0)"/></g><g transform="translate(1159.375, 510)"><text style="dominant-baseline: middle; text-anchor: middle">4</text></g><g transform="translate(10, 65.0)"><text style="dominant-baseline: middle; text-anchor: middle">A</text><line x1="-10" x2="10" stroke-width="0.6" transform="translate(0, 65.0)"/></g><g transform="translate(10, 195.0)"><text style="dominant-baseline: middle; text-anchor: middle">B</text><line x1="-10" x2="10" stroke-width="0.6" transform="translate(0, 65.0)"/></g><g transform="translate(10, 325.0)"><text style="dominant-baseline: middle; text-anchor: middle">C</text><line x1="-10" x2="10" stroke-width="0.6" transform="translate(0, 65.0)"/></g><g transform="translate(10, 455.0)"><text style="dominant-baseline: middle; text-anchor: middle">D</text></g><g transform="translate(1315, 65.0)"><text style="dominant-baseline: middle; text-anchor: middle">A</text><line x1="-10" x2="10" stroke-width="0.6" transform="translate(0, 65.0)"/></g><g transform="translate(1315, 195.0)"><text style="dominant-baseline: middle; text-anchor: middle">B</text><line x1="-10" x2="10" stroke-width="0.6" transform="translate(0, 65.0)"/></g><g transform="translate(1315, 325.0)"><text style="dominant-baseline: middle; text-anchor: middle">C</text><line x1="-10" x2="10" stroke-width="0.6" transform="translate(0, 65.0)"/></g><g transform="translate(1315, 455.0)"><text style="dominant-baseline: middle; text-anchor: middle">D</text></g><g transform="translate(1305, 500)"><polyline points="-350,0 -350,-80 0,-80" stroke-width="0.6"/><line x1="-350" x2="0" stroke-width="0.6" transform="translate(0, -50)"/><line y2="30" stroke-width="0.6" transform="translate(-300, -50)"/><line y2="30" stroke-width="0.6" transform="translate(-100, -50)"/><line x1="-350" x2="0" stroke-width="0.6" transform="translate(0, -20)"/><line x1="-350" x2="0" stroke-width="0.6" transform="translate(0, -10)"/><line y1="-20" y2="0" stroke-width="0.6" transform="translate(-150, 0)"/><text transform="translate(-345, -70)">Title</text><text transform="translate(-345, -40)">Size</text><text style="dominant-baseline: middle" transform="translate(-340, -30)">A</text><text transform="translate(-295, -40)">Number</text><text transform="translate(-95, -40)">Revision</text><text transform="translate(-345, -10)">Date</text><text transform="translate(-300, -10)">05/06/21</text><text transform="translate(-345, 0)">File</text><text transform="translate(-300, 0)">D:/Documents/school/PE2/Small-scale-remoted-controlled-cargo-truck\Hardware/Mainpcb/mainpcb/3.3V.schdoc</text><text transform="translate(-145, -10)">Sheet</text><text transform="translate(-117, -10)">of</text><text transform="translate(-145, 0)">Drawn By:</text></g></g><line x1="970" y1="-290" x2="970" y2="-280" data-id="ITGXZWOR" stroke-width="1" color="#0000FF"/><line x1="970" y1="-280" x2="964" y2="-275" data-id="ITGXZWOR" stroke-width="1" color="#0000FF"/><line x1="964" y1="-275" x2="976" y2="-268" data-id="ITGXZWOR" stroke-width="1" color="#0000FF"/><line x1="976" y1="-268" x2="964" y2="-260" data-id="ITGXZWOR" stroke-width="1" color="#0000FF"/><line x1="964" y1="-260" x2="976" y2="-253" data-id="ITGXZWOR" stroke-width="1" color="#0000FF"/><line x1="976" y1="-253" x2="964" y2="-245" data-id="ITGXZWOR" stroke-width="1" color="#0000FF"/><line x1="964" y1="-245" x2="970" y2="-240" data-id="ITGXZWOR" stroke-width="1" color="#0000FF"/><line x1="970" y1="-240" x2="970" y2="-230" data-id="ITGXZWOR" stroke-width="1" color="#0000FF"/><g data-id="ITGXZWOR" transform="translate(970.0, -280.0) rotate(-90)"><line x2="10"/></g><g data-id="ITGXZWOR" transform="translate(970.0, -240.0) rotate(-270)"><line x2="10"/></g><text class="font1" color="#000080" data-id="ITGXZWOR" transform="translate(976.0, -253.0)">51k</text><text class="font1" color="#000080" data-id="ITGXZWOR" transform="translate(976.0, -271.0)">Rfbt</text><line x1="970" y1="-195" x2="970" y2="-185" data-id="VPRRPDKO" stroke-width="1" color="#0000FF"/><line x1="970" y1="-185" x2="964" y2="-180" data-id="VPRRPDKO" stroke-width="1" color="#0000FF"/><line x1="964" y1="-180" x2="976" y2="-173" data-id="VPRRPDKO" stroke-width="1" color="#0000FF"/><line x1="976" y1="-173" x2="964" y2="-165" data-id="VPRRPDKO" stroke-width="1" color="#0000FF"/><line x1="964" y1="-165" x2="976" y2="-158" data-id="VPRRPDKO" stroke-width="1" color="#0000FF"/><line x1="976" y1="-158" x2="964" y2="-150" data-id="VPRRPDKO" stroke-width="1" color="#0000FF"/><line x1="964" y1="-150" x2="970" y2="-145" data-id="VPRRPDKO" stroke-width="1" color="#0000FF"/><line x1="970" y1="-145" x2="970" y2="-135" data-id="VPRRPDKO" stroke-width="1" color="#0000FF"/><g data-id="VPRRPDKO" transform="translate(970.0, -185.0) rotate(-90)"><line x2="10"/></g><g data-id="VPRRPDKO" transform="translate(970.0, -145.0) rotate(-270)"><line x2="10"/></g><text class="font1" color="#000080" data-id="VPRRPDKO" transform="translate(976.0, -158.0)">22.1k</text><text class="font1" color="#000080" data-id="VPRRPDKO" transform="translate(976.0, -176.0)">Rfbb</text><path color="#0000FF" d="M9.13574,-7.78063 a12,12 0 0,0 -3.13012,-2.60843" data-id="TASQVCYK" transform="translate(1063.0, -226.0)"/><path color="#0000FF" d="M8.50711,-13.551 a16,16 0 0,0 -8.80645,-2.44622" data-id="TASQVCYK" transform="translate(1060.0, -222.0)"/><path color="#0000FF" d="M0.299341,-15.9972 a16,16 0 0,0 -8.80645,2.44622" data-id="TASQVCYK" transform="translate(1060.0, -222.0)"/><path color="#0000FF" d="M-6.00562,-10.3891 a12,12 0 0,0 -3.13012,2.60843" data-id="TASQVCYK" transform="translate(1057.0, -226.0)"/><line x1="1073" y1="-244" x2="1047" y2="-244" data-id="TASQVCYK" stroke-width="1" color="#0000FF"/><line x1="1060" y1="-210" x2="1060" y2="-238" data-id="TASQVCYK" stroke-width="1" color="#0000FF"/><line x1="1060" y1="-244" x2="1060" y2="-270" data-id="TASQVCYK" stroke-width="1" color="#0000FF"/><line x1="1070" y1="-254" x2="1066" y2="-254" data-id="TASQVCYK" stroke-width="1" color="#0000FF"/><line x1="1068" y1="-252" x2="1068" y2="-256" data-id="TASQVCYK" stroke-width="1" color="#0000FF"/><g data-id="TASQVCYK" transform="translate(1060.0, -260.0) rotate(-90)"><line x2="10"/></g><g data-id="TASQVCYK" transform="translate(1060.0, -220.0) rotate(-270)"><line x2="10"/></g><text class="font1" color="#000080" data-id="TASQVCYK" transform="translate(1073.0, -240.0)">220uF</text><text class="font1" color="#000080" data-id="TASQVCYK" transform="translate(1073.0, -258.0)">Cout</text><line x1="505" y1="-250" x2="505" y2="-240" data-id="OXNEUPBI" stroke-width="1" color="#0000FF"/><line x1="505" y1="-190" x2="505" y2="-200" data-id="OXNEUPBI" stroke-width="1" color="#0000FF"/><line x1="517" y1="-223" x2="493" y2="-223" data-id="OXNEUPBI" stroke-width="1" color="#0000FF"/><line x1="505" y1="-200" x2="505" y2="-217" data-id="OXNEUPBI" stroke-width="1" color="#0000FF"/><line x1="505" y1="-223" x2="505" y2="-240" data-id="OXNEUPBI" stroke-width="1" color="#0000FF"/><line x1="517" y1="-217" x2="493" y2="-217" data-id="OXNEUPBI" stroke-width="1" color="#0000FF"/><g data-id="OXNEUPBI" transform="translate(505.0, -240.0) rotate(-90)"><line x2="10"/></g><g data-id="OXNEUPBI" transform="translate(505.0, -200.0) rotate(-270)"><line x2="10"/></g><text class="font1" color="#000080" data-id="OXNEUPBI" transform="translate(517.0, -219.0)">2.2uF</text><text class="font1" color="#000080" data-id="OXNEUPBI" transform="translate(517.0, -237.0)">Cvcc</text><line x1="875" y1="-280" x2="875" y2="-270" data-id="OHWULUWI" stroke-width="1" color="#0000FF"/><line x1="875" y1="-220" x2="875" y2="-230" data-id="OHWULUWI" stroke-width="1" color="#0000FF"/><line x1="887" y1="-253" x2="863" y2="-253" data-id="OHWULUWI" stroke-width="1" color="#0000FF"/><line x1="875" y1="-230" x2="875" y2="-247" data-id="OHWULUWI" stroke-width="1" color="#0000FF"/><line x1="875" y1="-253" x2="875" y2="-270" data-id="OHWULUWI" stroke-width="1" color="#0000FF"/><line x1="887" y1="-247" x2="863" y2="-247" data-id="OHWULUWI" stroke-width="1" color="#0000FF"/><g data-id="OHWULUWI" transform="translate(875.0, -270.0) rotate(-90)"><line x2="10"/></g><g data-id="OHWULUWI" transform="translate(875.0, -230.0) rotate(-270)"><line x2="10"/></g><text class="font1" color="#000080" data-id="OHWULUWI" transform="translate(887.0, -249.0)">150pF</text><text class="font1" color="#000080" data-id="OHWULUWI" transform="translate(887.0, -267.0)">Cff</text><line x1="195" y1="-265" x2="195" y2="-255" data-id="JMCIKJXS" stroke-width="1" color="#0000FF"/><line x1="195" y1="-205" x2="195" y2="-215" data-id="JMCIKJXS" stroke-width="1" color="#0000FF"/><line x1="207" y1="-238" x2="183" y2="-238" data-id="JMCIKJXS" stroke-width="1" color="#0000FF"/><line x1="195" y1="-215" x2="195" y2="-232" data-id="JMCIKJXS" stroke-width="1" color="#0000FF"/><line x1="195" y1="-238" x2="195" y2="-255" data-id="JMCIKJXS" stroke-width="1" color="#0000FF"/><line x1="207" y1="-232" x2="183" y2="-232" data-id="JMCIKJXS" stroke-width="1" color="#0000FF"/><g data-id="JMCIKJXS" transform="translate(195.0, -255.0) rotate(-90)"><line x2="10"/></g><g data-id="JMCIKJXS" transform="translate(195.0, -215.0) rotate(-270)"><line x2="10"/></g><text class="font1" color="#000080" data-id="JMCIKJXS" transform="translate(207.0, -234.0)">10uF</text><text class="font1" color="#000080" data-id="JMCIKJXS" transform="translate(207.0, -252.0)">Cin</text><line x1="540" y1="-250" x2="660" y2="-250" data-id="FYTESUSH" stroke-width="1" color="#0000FF"/><line x1="660" y1="-250" x2="660" y2="-390" data-id="FYTESUSH" stroke-width="1" color="#0000FF"/><line x1="660" y1="-390" x2="540" y2="-390" data-id="FYTESUSH" stroke-width="1" color="#0000FF"/><line x1="540" y1="-390" x2="540" y2="-250" data-id="FYTESUSH" stroke-width="1" color="#0000FF"/><g data-id="FYTESUSH" transform="translate(660.0, -340.0) rotate(0)"><line x2="20"/><text style="dominant-baseline: middle; text-anchor: end" transform="translate(-7, 0)"><tspan>SW</tspan></text><text style="text-anchor: start" transform="translate(9, 0)">1</text></g><g data-id="FYTESUSH" transform="translate(660.0, -370.0) rotate(0)"><line x2="20"/><text style="dominant-baseline: middle; text-anchor: end" transform="translate(-7, 0)"><tspan>BOOT</tspan></text><text style="text-anchor: start" transform="translate(9, 0)">2</text></g><g data-id="FYTESUSH" transform="translate(540.0, -300.0) rotate(-180)"><line x2="20"/><text style="dominant-baseline: middle; text-anchor: start" transform="translate(-7, 0) rotate(-180)"><tspan>VCC</tspan></text><text style="text-anchor: end" transform="translate(9, 0) rotate(-180)">3</text></g><g data-id="FYTESUSH" transform="translate(660.0, -310.0) rotate(0)"><polygon points="5.33333,-0.5 7,-3 0,0 7,3 5.33333,0.5" class="solid" transform="translate(0, 0)"/><line x1="5.33333" x2="20"/><text style="dominant-baseline: middle; text-anchor: end" transform="translate(-7, 0)"><tspan>FB</tspan></text><text style="text-anchor: start" transform="translate(9, 0)">4</text></g><g data-id="FYTESUSH" transform="translate(540.0, -350.0) rotate(-180)"><polygon points="5.33333,-0.5 7,-3 0,0 7,3 5.33333,0.5" class="solid" transform="translate(0, 0)"/><line x1="5.33333" x2="20"/><text style="dominant-baseline: middle; text-anchor: start" transform="translate(-7, 0) rotate(-180)"><tspan>EN_SYNC</tspan></text><text style="text-anchor: end" transform="translate(9, 0) rotate(-180)">5</text></g><g data-id="FYTESUSH" transform="translate(660.0, -270.0) rotate(0)"><line x2="20"/><text style="dominant-baseline: middle; text-anchor: end" transform="translate(-7, 0)"><tspan>AGND</tspan></text><text style="text-anchor: start" transform="translate(9, 0)">6</text></g><g data-id="FYTESUSH" transform="translate(540.0, -370.0) rotate(-180)"><line x2="20"/><text style="dominant-baseline: middle; text-anchor: start" transform="translate(-7, 0) rotate(-180)"><tspan>VIN</tspan></text><text style="text-anchor: end" transform="translate(9, 0) rotate(-180)">7</text></g><g data-id="FYTESUSH" transform="translate(660.0, -290.0) rotate(0)"><line x2="20"/><text style="dominant-baseline: middle; text-anchor: end" transform="translate(-7, 0)"><tspan>PGND</tspan></text><text style="text-anchor: start" transform="translate(9, 0)">8</text></g><g data-id="FYTESUSH" transform="translate(660.0, -260.0) rotate(0)"><line x2="20"/><text style="dominant-baseline: middle; text-anchor: end" transform="translate(-7, 0)"><tspan>PAD</tspan></text><text style="text-anchor: start" transform="translate(9, 0)">9</text></g><text class="font1" color="#000080" data-id="FYTESUSH" transform="translate(600.0, -305.0)">LMR23610ADDAR</text><text class="font1" color="#000080" data-id="FYTESUSH" transform="translate(600.0, -320.0)">U1</text><path color="#0000FF" d="M-14.3791,-4.27102 a15,15 0 0,0 -0.583132,3.20718" data-id="THMQUUNU" transform="translate(880.0, -339.0)"/><path color="#0000FF" d="M-0.206695,-3.99466 a4,4 0 0,0 -3.75024,3.40929" data-id="THMQUUNU" transform="translate(870.0, -343.0)"/><path color="#0000FF" d="M3.96752,-0.508743 a4,4 0 0,0 -3.74653,-3.48515" data-id="THMQUUNU" transform="translate(870.0, -343.0)"/><path color="#0000FF" d="M63.6282,-13.2834 a65,65 0 0,0 -0.691544,-2.96388" data-id="THMQUUNU" transform="translate(811.0, -327.0)"/><line x1="875" y1="-340" x2="885" y2="-340" data-id="THMQUUNU" stroke-width="1" color="#0000FF"/><path color="#0000FF" d="M-14.3791,-4.27102 a15,15 0 0,0 -0.583132,3.20718" data-id="THMQUUNU" transform="translate(870.0, -339.0)"/><path color="#0000FF" d="M-0.206695,-3.99466 a4,4 0 0,0 -3.75024,3.40929" data-id="THMQUUNU" transform="translate(860.0, -343.0)"/><path color="#0000FF" d="M3.96752,-0.508743 a4,4 0 0,0 -3.74653,-3.48515" data-id="THMQUUNU" transform="translate(860.0, -343.0)"/><path color="#0000FF" d="M12.9976,-0.247298 a13,13 0 0,0 -0.688504,-3.93421" data-id="THMQUUNU" transform="translate(852.0, -339.0)"/><path color="#0000FF" d="M-14.3791,-4.27102 a15,15 0 0,0 -0.583132,3.20718" data-id="THMQUUNU" transform="translate(860.0, -339.0)"/><path color="#0000FF" d="M-0.206695,-3.99466 a4,4 0 0,0 -3.75024,3.40929" data-id="THMQUUNU" transform="translate(850.0, -343.0)"/><path color="#0000FF" d="M3.96752,-0.508743 a4,4 0 0,0 -3.74653,-3.48515" data-id="THMQUUNU" transform="translate(850.0, -343.0)"/><path color="#0000FF" d="M12.9976,-0.247298 a13,13 0 0,0 -0.688504,-3.93421" data-id="THMQUUNU" transform="translate(842.0, -339.0)"/><line x1="825" y1="-340" x2="835" y2="-340" data-id="THMQUUNU" stroke-width="1" color="#0000FF"/><path color="#0000FF" d="M-14.3791,-4.27102 a15,15 0 0,0 -0.583132,3.20718" data-id="THMQUUNU" transform="translate(850.0, -339.0)"/><path color="#0000FF" d="M-0.206695,-3.99466 a4,4 0 0,0 -3.75024,3.40929" data-id="THMQUUNU" transform="translate(840.0, -343.0)"/><path color="#0000FF" d="M3.96752,-0.508743 a4,4 0 0,0 -3.74653,-3.48515" data-id="THMQUUNU" transform="translate(840.0, -343.0)"/><path color="#0000FF" d="M12.9976,-0.247298 a13,13 0 0,0 -0.688504,-3.93421" data-id="THMQUUNU" transform="translate(832.0, -339.0)"/><path color="#0000FF" d="M-0,-0 a0,0 0 0,0 0,0" data-id="THMQUUNU" transform="translate(846.0, -340.0)"/><path color="#0000FF" d="M-0,-0 a0,0 0 0,0 0,0" data-id="THMQUUNU" transform="translate(856.0, -340.0)"/><path color="#0000FF" d="M-0,-0 a0,0 0 0,0 0,0" data-id="THMQUUNU" transform="translate(866.0, -340.0)"/><g data-id="THMQUUNU" transform="translate(875.0, -340.0) rotate(0)"><line x2="10"/></g><g data-id="THMQUUNU" transform="translate(835.0, -340.0) rotate(-180)"><line x2="10"/></g><text class="font1" color="#000080" data-id="THMQUUNU" transform="translate(855.0, -320.0)">18uH</text><text class="font1" color="#000080" data-id="THMQUUNU" transform="translate(855.0, -357.0)">L1</text><g color="#800000" data-id="KTXZNMUZ" transform="translate(615.0, -120.0)"><use xlink:href="#gnd" transform="rotate(-270)"/></g><g data-id="FKABONJT" transform="translate(1225.0, -340.0)"><polygon points="0,5 40,5 45,0 40,-5 0,-5" class="solid" stroke-width="0.6" style="fill: #FFFF80; stroke: #800000"/><text class="font1" color="#800000" style="dominant-baseline: middle; text-anchor: start" transform="translate(10, 0)"><tspan>3V3</tspan></text></g><g data-id="HKTAEVDW" transform="translate(70.0, -370.0)"><polygon points="0,5 40,5 45,0 40,-5 0,-5" class="solid" stroke-width="0.6" style="fill: #FFFF80; stroke: #800000"/><text class="font1" color="#800000" style="dominant-baseline: middle; text-anchor: start" transform="translate(10, 0)"><tspan>B+</tspan></text></g><polyline points="766.063,-383.937 773.937,-383.937" color="#0000FF" data-id="CPDSKJOR"/><polyline points="766.063,-387.874 773.937,-387.874" color="#0000FF" data-id="CPDSKJOR"/><g data-id="CPDSKJOR" transform="translate(770.0, -387.87402) rotate(-90)"><line x2="3"/><text style="text-anchor: start" transform="translate(9, 0)">2</text></g><g data-id="CPDSKJOR" transform="translate(770.0, -383.93701) rotate(-270)"><line x2="3"/><text style="text-anchor: end" transform="translate(9, 0) rotate(-180)">1</text></g><text class="font1" color="#000080" data-id="CPDSKJOR" transform="translate(774.93701, -378.87402)">C?</text><text class="font1" color="#000080" data-id="CPDSKJOR" transform="translate(774.93701, -368.87402)">0.1µF</text><polyline points="970,-195 970,-200 970,-230" stroke-width="1" color="#000080" data-id="INRREKUP"/><polyline points="970,-290 970,-295 970,-340" stroke-width="1" color="#000080" data-id="NTXHMHEM"/><polyline points="970,-120 970,-135" stroke-width="1" color="#000080" data-id="SGYMCROB"/><polyline points="875,-200 875,-220" stroke-width="1" color="#000080" data-id="ITMPXAUT"/><polyline points="505,-190 505,-120" stroke-width="1" color="#000080" data-id="MFLFHAQX"/><polyline points="680,-290 680,-270 680,-260 680,-120" stroke-width="1" color="#000080" data-id="BCRMDFFA"/><polyline points="1060,-270 1060,-340" stroke-width="1" color="#000080" data-id="XAVIAMBG"/><polyline points="115,-370 195,-370 380,-370 520,-370" stroke-width="1" color="#000080" data-id="YXYBDYEP"/><polyline points="195,-265 195,-370" stroke-width="1" color="#000080" data-id="RANEASDI"/><polyline points="885,-340 970,-340 1060,-340 1225,-340" stroke-width="1" color="#000080" data-id="BPNWTPHZ"/><polyline points="680,-340 770,-340 825,-340" stroke-width="1" color="#000080" data-id="RBQLRXHC"/><polyline points="380,-370 380,-350 520,-350" stroke-width="1" color="#000080" data-id="FIZVVHUV"/><polyline points="520,-300 505,-300 505,-250" stroke-width="1" color="#000080" data-id="RDIEDDIB"/><polyline points="680,-310 720,-310 720,-200 875,-200 970,-200" stroke-width="1" color="#000080" data-id="PVUGMNZF"/><polyline points="875,-280 875,-295 970,-295" stroke-width="1" color="#000080" data-id="YGWIRGVV"/><polyline points="195,-205 195,-120 505,-120 615,-120 680,-120 970,-120 1060,-120 1060,-210" stroke-width="1" color="#000080" data-id="GLOMCXST"/><polyline points="680,-370 680,-420 770,-420 770,-391.811" stroke-width="1" color="#000080" data-id="GJVDZAEE"/><polyline points="770,-380 770,-340" stroke-width="1" color="#000080" data-id="ZYJZVSZK"/><circle r="2" class="solid" cx="195" cy="-370" style="fill: #800000"/><circle r="2" class="solid" cx="380" cy="-370" style="fill: #800000"/><circle r="2" class="solid" cx="505" cy="-120" style="fill: #800000"/><circle r="2" class="solid" cx="615" cy="-120" style="fill: #800000"/><circle r="2" class="solid" cx="680" cy="-120" style="fill: #800000"/><circle r="2" class="solid" cx="680" cy="-260" style="fill: #800000"/><circle r="2" class="solid" cx="680" cy="-270" style="fill: #800000"/><circle r="2" class="solid" cx="770" cy="-340" style="fill: #800000"/><circle r="2" class="solid" cx="875" cy="-200" style="fill: #800000"/><circle r="2" class="solid" cx="970" cy="-120" style="fill: #800000"/><circle r="2" class="solid" cx="970" cy="-200" style="fill: #800000"/><circle r="2" class="solid" cx="970" cy="-295" style="fill: #800000"/><circle r="2" class="solid" cx="970" cy="-340" style="fill: #800000"/><circle r="2" class="solid" cx="1060" cy="-340" style="fill: #800000"/></svg>