<svg class="schematic_svg" xmlns="http://www.w3.org/2000/svg" xmlns:xlink="http://www.w3.org/1999/xlink" width="13.756in" height="5.306in" viewBox="-0.3,-530.3 1375.6,530.6" stroke-width="1"><style type="text/css">.schematic_svg .outline, .schematic_svg path, .schematic_svg line, .schematic_svg polyline {
  stroke: currentColor;
  stroke-linecap: round;
  fill: none;
}
.schematic_svg .solid {
  fill: currentColor;
  stroke: none;
}
.schematic_svg text {
  dominant-baseline: text-after-edge;
  fill: currentColor;
}
.font2 {
  font-size: 8.75px;
  font-family: Times New Roman;
  text-decoration: underline;
}
text, .font1 {
  font-size: 8.75px;
  font-family: Times New Roman;
}
</style><defs><g id="gnd"><line x2="10"/><line y1="7" y2="-7" stroke-width="1.5" transform="translate(10, 0)"/><line y1="4" y2="-4" stroke-width="1.5" transform="translate(13, 0)"/><line y1="1" y2="-1" stroke-width="1.5" transform="translate(16, 0)"/></g><g id="rail"><line x2="10"/><line y1="7" y2="-7" stroke-width="1.5" transform="translate(10, 0)"/></g><g id="arrowconn"><polygon points="-5.33333,-0.5 -7,-3 0,0 -7,3 -5.33333,0.5" class="solid" transform="translate(10, 0)"/><line x2="4.66667"/></g><g id="dchevron"><line x2="5"/><polyline points="8,-4 5,0 8,4"/><polyline points="11,-4 8,0 11,4"/></g><g id="nc"><line x1="3" y1="-3" x2="-3" y2="3" stroke-width="0.6"/><line x1="-3" y1="-3" x2="3" y2="3" stroke-width="0.6"/></g><g id="clock"><polyline points="0,-3 -5,0 0,3" stroke-width="0.6"/></g></defs><g transform="translate(0, -530)"><rect width="1375" height="530" class="outline" stroke-width="0.6" style="fill: #FFFCF8"/><rect x="20" y="20" width="1335" height="490" class="outline" stroke-width="0.6"/><g transform="translate(171.875, 10)"><text style="dominant-baseline: middle; text-anchor: middle">1</text><line y1="10" y2="-10" stroke-width="0.6" transform="translate(171.875, 0)"/></g><g transform="translate(515.625, 10)"><text style="dominant-baseline: middle; text-anchor: middle">2</text><line y1="10" y2="-10" stroke-width="0.6" transform="translate(171.875, 0)"/></g><g transform="translate(859.375, 10)"><text style="dominant-baseline: middle; text-anchor: middle">3</text><line y1="10" y2="-10" stroke-width="0.6" transform="translate(171.875, 0)"/></g><g transform="translate(1203.125, 10)"><text style="dominant-baseline: middle; text-anchor: middle">4</text></g><g transform="translate(171.875, 520)"><text style="dominant-baseline: middle; text-anchor: middle">1</text><line y1="10" y2="-10" stroke-width="0.6" transform="translate(171.875, 0)"/></g><g transform="translate(515.625, 520)"><text style="dominant-baseline: middle; text-anchor: middle">2</text><line y1="10" y2="-10" stroke-width="0.6" transform="translate(171.875, 0)"/></g><g transform="translate(859.375, 520)"><text style="dominant-baseline: middle; text-anchor: middle">3</text><line y1="10" y2="-10" stroke-width="0.6" transform="translate(171.875, 0)"/></g><g transform="translate(1203.125, 520)"><text style="dominant-baseline: middle; text-anchor: middle">4</text></g><g transform="translate(10, 66.25)"><text style="dominant-baseline: middle; text-anchor: middle">A</text><line x1="-10" x2="10" stroke-width="0.6" transform="translate(0, 66.25)"/></g><g transform="translate(10, 198.75)"><text style="dominant-baseline: middle; text-anchor: middle">B</text><line x1="-10" x2="10" stroke-width="0.6" transform="translate(0, 66.25)"/></g><g transform="translate(10, 331.25)"><text style="dominant-baseline: middle; text-anchor: middle">C</text><line x1="-10" x2="10" stroke-width="0.6" transform="translate(0, 66.25)"/></g><g transform="translate(10, 463.75)"><text style="dominant-baseline: middle; text-anchor: middle">D</text></g><g transform="translate(1365, 66.25)"><text style="dominant-baseline: middle; text-anchor: middle">A</text><line x1="-10" x2="10" stroke-width="0.6" transform="translate(0, 66.25)"/></g><g transform="translate(1365, 198.75)"><text style="dominant-baseline: middle; text-anchor: middle">B</text><line x1="-10" x2="10" stroke-width="0.6" transform="translate(0, 66.25)"/></g><g transform="translate(1365, 331.25)"><text style="dominant-baseline: middle; text-anchor: middle">C</text><line x1="-10" x2="10" stroke-width="0.6" transform="translate(0, 66.25)"/></g><g transform="translate(1365, 463.75)"><text style="dominant-baseline: middle; text-anchor: middle">D</text></g><g transform="translate(1355, 510)"><polyline points="-350,0 -350,-80 0,-80" stroke-width="0.6"/><line x1="-350" x2="0" stroke-width="0.6" transform="translate(0, -50)"/><line y2="30" stroke-width="0.6" transform="translate(-300, -50)"/><line y2="30" stroke-width="0.6" transform="translate(-100, -50)"/><line x1="-350" x2="0" stroke-width="0.6" transform="translate(0, -20)"/><line x1="-350" x2="0" stroke-width="0.6" transform="translate(0, -10)"/><line y1="-20" y2="0" stroke-width="0.6" transform="translate(-150, 0)"/><text transform="translate(-345, -70)">Title</text><text transform="translate(-345, -40)">Size</text><text style="dominant-baseline: middle" transform="translate(-340, -30)">A</text><text transform="translate(-295, -40)">Number</text><text transform="translate(-95, -40)">Revision</text><text transform="translate(-345, -10)">Date</text><text transform="translate(-300, -10)">05/06/21</text><text transform="translate(-345, 0)">File</text><text transform="translate(-300, 0)">D:/Documents/school/PE2/Small-scale-remoted-controlled-cargo-truck\Hardware/Mainpcb/mainpcb/7.4V.schdoc</text><text transform="translate(-145, -10)">Sheet</text><text transform="translate(-117, -10)">of</text><text transform="translate(-145, 0)">Drawn By:</text></g></g><line x1="470" y1="-210" x2="470" y2="-200" data-id="OCJBKCWP" stroke-width="1" color="#0000FF"/><line x1="470" y1="-150" x2="470" y2="-160" data-id="OCJBKCWP" stroke-width="1" color="#0000FF"/><line x1="482" y1="-183" x2="458" y2="-183" data-id="OCJBKCWP" stroke-width="1" color="#0000FF"/><line x1="470" y1="-160" x2="470" y2="-177" data-id="OCJBKCWP" stroke-width="1" color="#0000FF"/><line x1="470" y1="-183" x2="470" y2="-200" data-id="OCJBKCWP" stroke-width="1" color="#0000FF"/><line x1="482" y1="-177" x2="458" y2="-177" data-id="OCJBKCWP" stroke-width="1" color="#0000FF"/><g data-id="OCJBKCWP" transform="translate(470.0, -200.0) rotate(-90)"><line x2="10"/></g><g data-id="OCJBKCWP" transform="translate(470.0, -160.0) rotate(-270)"><line x2="10"/></g><text class="font1" color="#000080" data-id="OCJBKCWP" transform="translate(482.0, -179.0)">15nF</text><text class="font1" color="#000080" data-id="OCJBKCWP" transform="translate(482.0, -197.0)">Ccomp</text><line x1="555" y1="-265" x2="555" y2="-255" data-id="HSFUJRRT" stroke-width="1" color="#0000FF"/><line x1="555" y1="-205" x2="555" y2="-215" data-id="HSFUJRRT" stroke-width="1" color="#0000FF"/><line x1="567" y1="-238" x2="543" y2="-238" data-id="HSFUJRRT" stroke-width="1" color="#0000FF"/><line x1="555" y1="-215" x2="555" y2="-232" data-id="HSFUJRRT" stroke-width="1" color="#0000FF"/><line x1="555" y1="-238" x2="555" y2="-255" data-id="HSFUJRRT" stroke-width="1" color="#0000FF"/><line x1="567" y1="-232" x2="543" y2="-232" data-id="HSFUJRRT" stroke-width="1" color="#0000FF"/><g data-id="HSFUJRRT" transform="translate(555.0, -255.0) rotate(-90)"><line x2="10"/></g><g data-id="HSFUJRRT" transform="translate(555.0, -215.0) rotate(-270)"><line x2="10"/></g><text class="font1" color="#000080" data-id="HSFUJRRT" transform="translate(567.0, -234.0)">390pF</text><text class="font1" color="#000080" data-id="HSFUJRRT" transform="translate(567.0, -252.0)">Ccomp2</text><path color="#0000FF" d="M9.13574,-7.78063 a12,12 0 0,0 -3.13012,-2.60843" data-id="SKZJLPTR" transform="translate(188.0, -316.0)"/><path color="#0000FF" d="M8.50711,-13.551 a16,16 0 0,0 -8.80645,-2.44622" data-id="SKZJLPTR" transform="translate(185.0, -312.0)"/><path color="#0000FF" d="M0.299341,-15.9972 a16,16 0 0,0 -8.80645,2.44622" data-id="SKZJLPTR" transform="translate(185.0, -312.0)"/><path color="#0000FF" d="M-6.00562,-10.3891 a12,12 0 0,0 -3.13012,2.60843" data-id="SKZJLPTR" transform="translate(182.0, -316.0)"/><line x1="198" y1="-334" x2="172" y2="-334" data-id="SKZJLPTR" stroke-width="1" color="#0000FF"/><line x1="185" y1="-300" x2="185" y2="-328" data-id="SKZJLPTR" stroke-width="1" color="#0000FF"/><line x1="185" y1="-334" x2="185" y2="-360" data-id="SKZJLPTR" stroke-width="1" color="#0000FF"/><line x1="195" y1="-344" x2="191" y2="-344" data-id="SKZJLPTR" stroke-width="1" color="#0000FF"/><line x1="193" y1="-342" x2="193" y2="-346" data-id="SKZJLPTR" stroke-width="1" color="#0000FF"/><g data-id="SKZJLPTR" transform="translate(185.0, -350.0) rotate(-90)"><line x2="10"/></g><g data-id="SKZJLPTR" transform="translate(185.0, -310.0) rotate(-270)"><line x2="10"/></g><text class="font1" color="#000080" data-id="SKZJLPTR" transform="translate(198.0, -330.0)">47uF</text><text class="font1" color="#000080" data-id="SKZJLPTR" transform="translate(198.0, -348.0)">Cin</text><line x1="265" y1="-295" x2="265" y2="-285" data-id="TSCETUQV" stroke-width="1" color="#0000FF"/><line x1="265" y1="-235" x2="265" y2="-245" data-id="TSCETUQV" stroke-width="1" color="#0000FF"/><line x1="277" y1="-268" x2="253" y2="-268" data-id="TSCETUQV" stroke-width="1" color="#0000FF"/><line x1="265" y1="-245" x2="265" y2="-262" data-id="TSCETUQV" stroke-width="1" color="#0000FF"/><line x1="265" y1="-268" x2="265" y2="-285" data-id="TSCETUQV" stroke-width="1" color="#0000FF"/><line x1="277" y1="-262" x2="253" y2="-262" data-id="TSCETUQV" stroke-width="1" color="#0000FF"/><g data-id="TSCETUQV" transform="translate(265.0, -285.0) rotate(-90)"><line x2="10"/></g><g data-id="TSCETUQV" transform="translate(265.0, -245.0) rotate(-270)"><line x2="10"/></g><text class="font1" color="#000080" data-id="TSCETUQV" transform="translate(277.0, -264.0)">100nF</text><text class="font1" color="#000080" data-id="TSCETUQV" transform="translate(277.0, -282.0)">Cinx</text><line x1="1050" y1="-195" x2="1050" y2="-185" data-id="GCGAQDRZ" stroke-width="1" color="#0000FF"/><line x1="1050" y1="-135" x2="1050" y2="-145" data-id="GCGAQDRZ" stroke-width="1" color="#0000FF"/><line x1="1062" y1="-168" x2="1038" y2="-168" data-id="GCGAQDRZ" stroke-width="1" color="#0000FF"/><line x1="1050" y1="-145" x2="1050" y2="-162" data-id="GCGAQDRZ" stroke-width="1" color="#0000FF"/><line x1="1050" y1="-168" x2="1050" y2="-185" data-id="GCGAQDRZ" stroke-width="1" color="#0000FF"/><line x1="1062" y1="-162" x2="1038" y2="-162" data-id="GCGAQDRZ" stroke-width="1" color="#0000FF"/><g data-id="GCGAQDRZ" transform="translate(1050.0, -185.0) rotate(-90)"><line x2="10"/></g><g data-id="GCGAQDRZ" transform="translate(1050.0, -145.0) rotate(-270)"><line x2="10"/></g><text class="font1" color="#000080" data-id="GCGAQDRZ" transform="translate(1062.0, -164.0)">10uF</text><text class="font1" color="#000080" data-id="GCGAQDRZ" transform="translate(1062.0, -182.0)">Cout</text><path color="#0000FF" d="M-14.3791,-4.27102 a15,15 0 0,0 -0.583132,3.20718" data-id="BHPNHHNU" transform="translate(1005.0, -399.0)"/><path color="#0000FF" d="M-0.206695,-3.99466 a4,4 0 0,0 -3.75024,3.40929" data-id="BHPNHHNU" transform="translate(995.0, -403.0)"/><path color="#0000FF" d="M3.96752,-0.508743 a4,4 0 0,0 -3.74653,-3.48515" data-id="BHPNHHNU" transform="translate(995.0, -403.0)"/><path color="#0000FF" d="M63.6282,-13.2834 a65,65 0 0,0 -0.691544,-2.96388" data-id="BHPNHHNU" transform="translate(936.0, -387.0)"/><line x1="1000" y1="-400" x2="1010" y2="-400" data-id="BHPNHHNU" stroke-width="1" color="#0000FF"/><path color="#0000FF" d="M-14.3791,-4.27102 a15,15 0 0,0 -0.583132,3.20718" data-id="BHPNHHNU" transform="translate(995.0, -399.0)"/><path color="#0000FF" d="M-0.206695,-3.99466 a4,4 0 0,0 -3.75024,3.40929" data-id="BHPNHHNU" transform="translate(985.0, -403.0)"/><path color="#0000FF" d="M3.96752,-0.508743 a4,4 0 0,0 -3.74653,-3.48515" data-id="BHPNHHNU" transform="translate(985.0, -403.0)"/><path color="#0000FF" d="M12.9976,-0.247298 a13,13 0 0,0 -0.688504,-3.93421" data-id="BHPNHHNU" transform="translate(977.0, -399.0)"/><path color="#0000FF" d="M-14.3791,-4.27102 a15,15 0 0,0 -0.583132,3.20718" data-id="BHPNHHNU" transform="translate(985.0, -399.0)"/><path color="#0000FF" d="M-0.206695,-3.99466 a4,4 0 0,0 -3.75024,3.40929" data-id="BHPNHHNU" transform="translate(975.0, -403.0)"/><path color="#0000FF" d="M3.96752,-0.508743 a4,4 0 0,0 -3.74653,-3.48515" data-id="BHPNHHNU" transform="translate(975.0, -403.0)"/><path color="#0000FF" d="M12.9976,-0.247298 a13,13 0 0,0 -0.688504,-3.93421" data-id="BHPNHHNU" transform="translate(967.0, -399.0)"/><line x1="950" y1="-400" x2="960" y2="-400" data-id="BHPNHHNU" stroke-width="1" color="#0000FF"/><path color="#0000FF" d="M-14.3791,-4.27102 a15,15 0 0,0 -0.583132,3.20718" data-id="BHPNHHNU" transform="translate(975.0, -399.0)"/><path color="#0000FF" d="M-0.206695,-3.99466 a4,4 0 0,0 -3.75024,3.40929" data-id="BHPNHHNU" transform="translate(965.0, -403.0)"/><path color="#0000FF" d="M3.96752,-0.508743 a4,4 0 0,0 -3.74653,-3.48515" data-id="BHPNHHNU" transform="translate(965.0, -403.0)"/><path color="#0000FF" d="M12.9976,-0.247298 a13,13 0 0,0 -0.688504,-3.93421" data-id="BHPNHHNU" transform="translate(957.0, -399.0)"/><path color="#0000FF" d="M-0,-0 a0,0 0 0,0 0,0" data-id="BHPNHHNU" transform="translate(971.0, -400.0)"/><path color="#0000FF" d="M-0,-0 a0,0 0 0,0 0,0" data-id="BHPNHHNU" transform="translate(981.0, -400.0)"/><path color="#0000FF" d="M-0,-0 a0,0 0 0,0 0,0" data-id="BHPNHHNU" transform="translate(991.0, -400.0)"/><g data-id="BHPNHHNU" transform="translate(1000.0, -400.0) rotate(0)"><line x2="10"/></g><g data-id="BHPNHHNU" transform="translate(960.0, -400.0) rotate(-180)"><line x2="10"/></g><text class="font1" color="#000080" data-id="BHPNHHNU" transform="translate(980.0, -380.0)">5.6uH</text><text class="font1" color="#000080" data-id="BHPNHHNU" transform="translate(980.0, -417.0)">L1</text><line x1="470" y1="-300" x2="470" y2="-290" data-id="ZVJVNUMI" stroke-width="1" color="#0000FF"/><line x1="470" y1="-290" x2="464" y2="-285" data-id="ZVJVNUMI" stroke-width="1" color="#0000FF"/><line x1="464" y1="-285" x2="476" y2="-278" data-id="ZVJVNUMI" stroke-width="1" color="#0000FF"/><line x1="476" y1="-278" x2="464" y2="-270" data-id="ZVJVNUMI" stroke-width="1" color="#0000FF"/><line x1="464" y1="-270" x2="476" y2="-263" data-id="ZVJVNUMI" stroke-width="1" color="#0000FF"/><line x1="476" y1="-263" x2="464" y2="-255" data-id="ZVJVNUMI" stroke-width="1" color="#0000FF"/><line x1="464" y1="-255" x2="470" y2="-250" data-id="ZVJVNUMI" stroke-width="1" color="#0000FF"/><line x1="470" y1="-250" x2="470" y2="-240" data-id="ZVJVNUMI" stroke-width="1" color="#0000FF"/><g data-id="ZVJVNUMI" transform="translate(470.0, -290.0) rotate(-90)"><line x2="10"/></g><g data-id="ZVJVNUMI" transform="translate(470.0, -250.0) rotate(-270)"><line x2="10"/></g><text class="font1" color="#000080" data-id="ZVJVNUMI" transform="translate(476.0, -263.0)">1.65k</text><text class="font1" color="#000080" data-id="ZVJVNUMI" transform="translate(476.0, -281.0)">Rcomp</text><line x1="895" y1="-225" x2="895" y2="-215" data-id="IUDBSFHK" stroke-width="1" color="#0000FF"/><line x1="895" y1="-215" x2="889" y2="-210" data-id="IUDBSFHK" stroke-width="1" color="#0000FF"/><line x1="889" y1="-210" x2="901" y2="-203" data-id="IUDBSFHK" stroke-width="1" color="#0000FF"/><line x1="901" y1="-203" x2="889" y2="-195" data-id="IUDBSFHK" stroke-width="1" color="#0000FF"/><line x1="889" y1="-195" x2="901" y2="-188" data-id="IUDBSFHK" stroke-width="1" color="#0000FF"/><line x1="901" y1="-188" x2="889" y2="-180" data-id="IUDBSFHK" stroke-width="1" color="#0000FF"/><line x1="889" y1="-180" x2="895" y2="-175" data-id="IUDBSFHK" stroke-width="1" color="#0000FF"/><line x1="895" y1="-175" x2="895" y2="-165" data-id="IUDBSFHK" stroke-width="1" color="#0000FF"/><g data-id="IUDBSFHK" transform="translate(895.0, -175.0) rotate(-270)"><line x2="10"/></g><g data-id="IUDBSFHK" transform="translate(895.0, -215.0) rotate(-90)"><line x2="10"/></g><text class="font1" color="#000080" data-id="IUDBSFHK" transform="translate(901.0, -188.0)">32k</text><text class="font1" color="#000080" data-id="IUDBSFHK" transform="translate(901.0, -206.0)">Rfbb</text><line x1="1005" y1="-265" x2="995" y2="-265" data-id="PLGVBJUD" stroke-width="1" color="#0000FF"/><line x1="995" y1="-265" x2="990" y2="-271" data-id="PLGVBJUD" stroke-width="1" color="#0000FF"/><line x1="990" y1="-271" x2="983" y2="-259" data-id="PLGVBJUD" stroke-width="1" color="#0000FF"/><line x1="983" y1="-259" x2="975" y2="-271" data-id="PLGVBJUD" stroke-width="1" color="#0000FF"/><line x1="975" y1="-271" x2="968" y2="-259" data-id="PLGVBJUD" stroke-width="1" color="#0000FF"/><line x1="968" y1="-259" x2="960" y2="-271" data-id="PLGVBJUD" stroke-width="1" color="#0000FF"/><line x1="960" y1="-271" x2="955" y2="-265" data-id="PLGVBJUD" stroke-width="1" color="#0000FF"/><line x1="955" y1="-265" x2="945" y2="-265" data-id="PLGVBJUD" stroke-width="1" color="#0000FF"/><g data-id="PLGVBJUD" transform="translate(995.0, -265.0) rotate(0)"><line x2="10"/></g><g data-id="PLGVBJUD" transform="translate(955.0, -265.0) rotate(-180)"><line x2="10"/></g><text class="font1" color="#000080" data-id="PLGVBJUD" transform="translate(975.0, -244.0)">100k</text><text class="font1" color="#000080" data-id="PLGVBJUD" transform="translate(975.0, -283.0)">Rfbt</text><line x1="640" y1="-295" x2="640" y2="-285" data-id="AKHQATJB" stroke-width="1" color="#0000FF"/><line x1="640" y1="-285" x2="634" y2="-280" data-id="AKHQATJB" stroke-width="1" color="#0000FF"/><line x1="634" y1="-280" x2="646" y2="-273" data-id="AKHQATJB" stroke-width="1" color="#0000FF"/><line x1="646" y1="-273" x2="634" y2="-265" data-id="AKHQATJB" stroke-width="1" color="#0000FF"/><line x1="634" y1="-265" x2="646" y2="-258" data-id="AKHQATJB" stroke-width="1" color="#0000FF"/><line x1="646" y1="-258" x2="634" y2="-250" data-id="AKHQATJB" stroke-width="1" color="#0000FF"/><line x1="634" y1="-250" x2="640" y2="-245" data-id="AKHQATJB" stroke-width="1" color="#0000FF"/><line x1="640" y1="-245" x2="640" y2="-235" data-id="AKHQATJB" stroke-width="1" color="#0000FF"/><g data-id="AKHQATJB" transform="translate(640.0, -285.0) rotate(-90)"><line x2="10"/></g><g data-id="AKHQATJB" transform="translate(640.0, -245.0) rotate(-270)"><line x2="10"/></g><text class="font1" color="#000080" data-id="AKHQATJB" transform="translate(646.0, -258.0)">86.6k</text><text class="font1" color="#000080" data-id="AKHQATJB" transform="translate(646.0, -276.0)">Rpg</text><line x1="660" y1="-310" x2="770" y2="-310" data-id="ARPWMELB" stroke-width="1" color="#0000FF"/><line x1="770" y1="-310" x2="770" y2="-450" data-id="ARPWMELB" stroke-width="1" color="#0000FF"/><line x1="770" y1="-450" x2="660" y2="-450" data-id="ARPWMELB" stroke-width="1" color="#0000FF"/><line x1="660" y1="-450" x2="660" y2="-310" data-id="ARPWMELB" stroke-width="1" color="#0000FF"/><line x1="640" y1="-430" x2="660" y2="-430" data-id="ARPWMELB" stroke-width="1" color="#0000FF"/><line x1="790" y1="-400" x2="770" y2="-400" data-id="ARPWMELB" stroke-width="1" color="#0000FF"/><line x1="790" y1="-350" x2="770" y2="-350" data-id="ARPWMELB" stroke-width="1" color="#0000FF"/><line x1="790" y1="-340" x2="770" y2="-340" data-id="ARPWMELB" stroke-width="1" color="#0000FF"/><line x1="790" y1="-330" x2="770" y2="-330" data-id="ARPWMELB" stroke-width="1" color="#0000FF"/><line x1="790" y1="-380" x2="770" y2="-380" data-id="ARPWMELB" stroke-width="1" color="#0000FF"/><line x1="640" y1="-370" x2="660" y2="-370" data-id="ARPWMELB" stroke-width="1" color="#0000FF"/><line x1="640" y1="-400" x2="660" y2="-400" data-id="ARPWMELB" stroke-width="1" color="#0000FF"/><line x1="790" y1="-430" x2="770" y2="-430" data-id="ARPWMELB" stroke-width="1" color="#0000FF"/><line x1="640" y1="-340" x2="660" y2="-340" data-id="ARPWMELB" stroke-width="1" color="#0000FF"/><line x1="790" y1="-320" x2="770" y2="-320" data-id="ARPWMELB" stroke-width="1" color="#0000FF"/><g data-id="ARPWMELB" transform="translate(660.0, -430.0) rotate(-180)"><line x2="20"/><text style="dominant-baseline: middle; text-anchor: start" transform="translate(-7, 0) rotate(-180)"><tspan>VIN</tspan></text><text style="text-anchor: end" transform="translate(9, 0) rotate(-180)">1</text></g><g data-id="ARPWMELB" transform="translate(770.0, -400.0) rotate(0)"><line x2="20"/><text style="dominant-baseline: middle; text-anchor: end" transform="translate(-7, 0)"><tspan>PH</tspan></text><text style="text-anchor: start" transform="translate(9, 0)">2</text></g><g data-id="ARPWMELB" transform="translate(770.0, -350.0) rotate(0)"><line x2="20"/><text style="dominant-baseline: middle; text-anchor: end" transform="translate(-7, 0)"><tspan>GND</tspan></text><text style="text-anchor: start" transform="translate(9, 0)">3</text></g><g data-id="ARPWMELB" transform="translate(770.0, -340.0) rotate(0)"><line x2="20"/><text style="dominant-baseline: middle; text-anchor: end" transform="translate(-7, 0)"><tspan>GND</tspan></text><text style="text-anchor: start" transform="translate(9, 0)">4</text></g><g data-id="ARPWMELB" transform="translate(770.0, -330.0) rotate(0)"><line x2="20"/><text style="dominant-baseline: middle; text-anchor: end" transform="translate(-7, 0)"><tspan>GND</tspan></text><text style="text-anchor: start" transform="translate(9, 0)">5</text></g><g data-id="ARPWMELB" transform="translate(770.0, -380.0) rotate(0)"><polygon points="5.33333,-0.5 7,-3 0,0 7,3 5.33333,0.5" class="solid" transform="translate(0, 0)"/><line x1="5.33333" x2="20"/><text style="dominant-baseline: middle; text-anchor: end" transform="translate(-7, 0)"><tspan>VSENSE</tspan></text><text style="text-anchor: start" transform="translate(9, 0)">6</text></g><g data-id="ARPWMELB" transform="translate(660.0, -370.0) rotate(-180)"><polygon points="9,-0.5 5,-2.5 0,0 5,2.5 9,0.5" class="solid" transform="translate(0, 0)"/><line x1="9" x2="20"/><text style="dominant-baseline: middle; text-anchor: start" transform="translate(-7, 0) rotate(-180)"><tspan>COMP</tspan></text><text style="text-anchor: end" transform="translate(9, 0) rotate(-180)">7</text></g><g data-id="ARPWMELB" transform="translate(660.0, -400.0) rotate(-180)"><polygon points="5.33333,-0.5 7,-3 0,0 7,3 5.33333,0.5" class="solid" transform="translate(0, 0)"/><line x1="5.33333" x2="20"/><text style="dominant-baseline: middle; text-anchor: start" transform="translate(-7, 0) rotate(-180)"><tspan>EN</tspan></text><text style="text-anchor: end" transform="translate(9, 0) rotate(-180)">8</text></g><g data-id="ARPWMELB" transform="translate(770.0, -430.0) rotate(0)"><line x2="20"/><text style="dominant-baseline: middle; text-anchor: end" transform="translate(-7, 0)"><tspan>BOOT</tspan></text><text style="text-anchor: start" transform="translate(9, 0)">9</text></g><g data-id="ARPWMELB" transform="translate(660.0, -340.0) rotate(-180)"><polygon points="5.6,-0.5 0,-2.5 0,0 0,2.5 5.6,0.5" class="solid" transform="translate(0, 0)"/><line x1="5.6" x2="20"/><text style="dominant-baseline: middle; text-anchor: start" transform="translate(-7, 0) rotate(-180)"><tspan>PGOOD</tspan></text><text style="text-anchor: end" transform="translate(9, 0) rotate(-180)">10</text></g><g data-id="ARPWMELB" transform="translate(770.0, -320.0) rotate(0)"><line x2="20"/><text style="dominant-baseline: middle; text-anchor: end" transform="translate(-7, 0)"><tspan>PAD</tspan></text><text style="text-anchor: start" transform="translate(9, 0)">11</text></g><text class="font1" color="#000080" data-id="ARPWMELB" transform="translate(710.0, -365.0)">TPS54334DRCR</text><text class="font1" color="#000080" data-id="ARPWMELB" transform="translate(710.0, -380.0)">U1</text><line x1="640" y1="-183" x2="640" y2="-205" data-id="VSFPVHPX" stroke-width="1" color="#0000FF"/><line x1="628" y1="-182" x2="652" y2="-182" data-id="VSFPVHPX" stroke-width="1" color="#0000FF"/><line x1="628" y1="-171" x2="652" y2="-171" data-id="VSFPVHPX" stroke-width="1" color="#0000FF"/><line x1="640" y1="-145" x2="640" y2="-164" data-id="VSFPVHPX" stroke-width="1" color="#0000FF"/><line x1="635" y1="-177" x2="645" y2="-177" data-id="VSFPVHPX" stroke-width="1" color="#0000FF"/><line x1="635" y1="-176" x2="645" y2="-176" data-id="VSFPVHPX" stroke-width="1" color="#0000FF"/><line x1="649" y1="-189" x2="655" y2="-189" data-id="VSFPVHPX" stroke-width="1" color="#0000FF"/><line x1="652" y1="-186" x2="652" y2="-192" data-id="VSFPVHPX" stroke-width="1" color="#0000FF"/><line x1="650" y1="-162" x2="655" y2="-162" data-id="VSFPVHPX" stroke-width="1" color="#0000FF"/><line x1="635" y1="-165" x2="645" y2="-165" data-id="VSFPVHPX" stroke-width="1" color="#0000FF"/><line x1="635" y1="-166" x2="645" y2="-166" data-id="VSFPVHPX" stroke-width="1" color="#0000FF"/><g data-id="VSFPVHPX" transform="translate(640.0, -195.0) rotate(-90)"><line x2="10"/></g><g data-id="VSFPVHPX" transform="translate(640.0, -155.0) rotate(-270)"><line x2="10"/></g><text class="font1" color="#000080" data-id="VSFPVHPX" transform="translate(655.0, -195.0)">VDC_5V</text><line x1="1120" y1="-195" x2="1120" y2="-185" data-id="FNLOOUGS" stroke-width="1" color="#0000FF"/><line x1="1120" y1="-135" x2="1120" y2="-145" data-id="FNLOOUGS" stroke-width="1" color="#0000FF"/><line x1="1132" y1="-168" x2="1108" y2="-168" data-id="FNLOOUGS" stroke-width="1" color="#0000FF"/><line x1="1120" y1="-145" x2="1120" y2="-162" data-id="FNLOOUGS" stroke-width="1" color="#0000FF"/><line x1="1120" y1="-168" x2="1120" y2="-185" data-id="FNLOOUGS" stroke-width="1" color="#0000FF"/><line x1="1132" y1="-162" x2="1108" y2="-162" data-id="FNLOOUGS" stroke-width="1" color="#0000FF"/><g data-id="FNLOOUGS" transform="translate(1120.0, -185.0) rotate(-90)"><line x2="10"/></g><g data-id="FNLOOUGS" transform="translate(1120.0, -145.0) rotate(-270)"><line x2="10"/></g><text class="font1" color="#000080" data-id="FNLOOUGS" transform="translate(1132.0, -164.0)">10uF</text><text class="font1" color="#000080" data-id="FNLOOUGS" transform="translate(1132.0, -182.0)">Cout_2</text><line x1="1190" y1="-195" x2="1190" y2="-185" data-id="TDHRLEFQ" stroke-width="1" color="#0000FF"/><line x1="1190" y1="-135" x2="1190" y2="-145" data-id="TDHRLEFQ" stroke-width="1" color="#0000FF"/><line x1="1202" y1="-168" x2="1178" y2="-168" data-id="TDHRLEFQ" stroke-width="1" color="#0000FF"/><line x1="1190" y1="-145" x2="1190" y2="-162" data-id="TDHRLEFQ" stroke-width="1" color="#0000FF"/><line x1="1190" y1="-168" x2="1190" y2="-185" data-id="TDHRLEFQ" stroke-width="1" color="#0000FF"/><line x1="1202" y1="-162" x2="1178" y2="-162" data-id="TDHRLEFQ" stroke-width="1" color="#0000FF"/><g data-id="TDHRLEFQ" transform="translate(1190.0, -185.0) rotate(-90)"><line x2="10"/></g><g data-id="TDHRLEFQ" transform="translate(1190.0, -145.0) rotate(-270)"><line x2="10"/></g><text class="font1" color="#000080" data-id="TDHRLEFQ" transform="translate(1202.0, -164.0)">10uF</text><text class="font1" color="#000080" data-id="TDHRLEFQ" transform="translate(1202.0, -182.0)">Cout_3</text><g color="#800000" data-id="RYSMUGUZ" transform="translate(710.0, -120.0)"><use xlink:href="#gnd" transform="rotate(-270)"/></g><g data-id="QDSEMBUZ" transform="translate(70.0, -430.0)"><polygon points="0,5 40,5 45,0 40,-5 0,-5" class="solid" stroke-width="0.6" style="fill: #FFFF80; stroke: #800000"/><text class="font1" color="#800000" style="dominant-baseline: middle; text-anchor: start" transform="translate(10, 0)"><tspan>B+</tspan></text></g><g data-id="HLYLKWGM" transform="translate(1275.0, -380.0)"><polygon points="0,5 30,5 35,0 30,-5 0,-5" class="solid" stroke-width="0.6" style="fill: #FFFF80; stroke: #800000"/><text class="font1" color="#800000" style="dominant-baseline: middle; text-anchor: start" transform="translate(10, 0)"><tspan>7V4</tspan></text></g><polyline points="823.937,-433.937 823.937,-426.063" color="#0000FF" data-id="MOZFXDST"/><polyline points="827.874,-433.937 827.874,-426.063" color="#0000FF" data-id="MOZFXDST"/><g data-id="MOZFXDST" transform="translate(827.87402, -430.0) rotate(0)"><line x2="3"/><text style="text-anchor: start" transform="translate(9, 0)">2</text></g><g data-id="MOZFXDST" transform="translate(823.93701, -430.0) rotate(-180)"><line x2="3"/><text style="text-anchor: end" transform="translate(9, 0) rotate(-180)">1</text></g><text class="font1" color="#000080" data-id="MOZFXDST" transform="translate(822.93701, -434.93701)">C?</text><text class="font1" color="#000080" data-id="MOZFXDST" transform="translate(822.93701, -415.06299)">0.1µF</text><polyline points="265,-235 265,-120" stroke-width="1" color="#000080" data-id="QDCCGREE"/><polyline points="265,-295 265,-430" stroke-width="1" color="#000080" data-id="USITCDFS"/><polyline points="470,-150 470,-120" stroke-width="1" color="#000080" data-id="XCHHDRGD"/><polyline points="470,-210 470,-240" stroke-width="1" color="#000080" data-id="ZVKQOWKW"/><polyline points="555,-205 555,-120" stroke-width="1" color="#000080" data-id="UDTSBZJZ"/><polyline points="555,-265 555,-370" stroke-width="1" color="#000080" data-id="WYDLGOPX"/><polyline points="640,-145 640,-120" stroke-width="1" color="#000080" data-id="ILZJCNQQ"/><polyline points="640,-235 640,-205" stroke-width="1" color="#000080" data-id="QAPDHWKN"/><polyline points="640,-295 640,-340" stroke-width="1" color="#000080" data-id="ADVLDSUV"/><polyline points="790,-350 790,-340 790,-330 790,-320 790,-120" stroke-width="1" color="#000080" data-id="JBUCDBAD"/><polyline points="895,-165 895,-120" stroke-width="1" color="#000080" data-id="ZMSVVCAO"/><polyline points="945,-265 895,-265" stroke-width="1" color="#000080" data-id="JUONQXKG"/><polyline points="1005,-265 1050,-265" stroke-width="1" color="#000080" data-id="RKQIKDOZ"/><polyline points="185,-360 185,-430" stroke-width="1" color="#000080" data-id="BLEKMSEW"/><polyline points="790,-400 870,-400 950,-400" stroke-width="1" color="#000080" data-id="ZZMCROON"/><polyline points="115,-430 185,-430 265,-430 640,-430" stroke-width="1" color="#000080" data-id="PBYUTEBY"/><polyline points="1050,-380 1275,-380" stroke-width="1" color="#000080" data-id="KRPMLPAP"/><polyline points="1050,-195 1120,-195 1190,-195" stroke-width="1" color="#000080" data-id="BBDMZVSM"/><polyline points="1050,-135 1120,-135 1190,-135" stroke-width="1" color="#000080" data-id="KLCHHCNM"/><polyline points="1050,-135 1050,-120 895,-120 790,-120 710,-120 640,-120 555,-120 470,-120 265,-120 185,-120 185,-300" stroke-width="1" color="#000080" data-id="ODZCSOSB"/><polyline points="470,-300 470,-370 555,-370 640,-370" stroke-width="1" color="#000080" data-id="OXUMNHIZ"/><polyline points="790,-380 895,-380 895,-265 895,-225" stroke-width="1" color="#000080" data-id="PBCEXSZF"/><polyline points="1010,-400 1050,-400 1050,-380 1050,-265 1050,-195" stroke-width="1" color="#000080" data-id="PPYHMEFP"/><polyline points="790,-430 820,-430" stroke-width="1" color="#000080" data-id="RBXYASMR"/><polyline points="831.811,-430 870,-430 870,-400" stroke-width="1" color="#000080" data-id="DBFJCJOK"/><circle r="2" class="solid" cx="185" cy="-430" style="fill: #800000"/><circle r="2" class="solid" cx="265" cy="-120" style="fill: #800000"/><circle r="2" class="solid" cx="265" cy="-430" style="fill: #800000"/><circle r="2" class="solid" cx="470" cy="-120" style="fill: #800000"/><circle r="2" class="solid" cx="555" cy="-120" style="fill: #800000"/><circle r="2" class="solid" cx="555" cy="-370" style="fill: #800000"/><circle r="2" class="solid" cx="640" cy="-120" style="fill: #800000"/><circle r="2" class="solid" cx="710" cy="-120" style="fill: #800000"/><circle r="2" class="solid" cx="790" cy="-120" style="fill: #800000"/><circle r="2" class="solid" cx="790" cy="-320" style="fill: #800000"/><circle r="2" class="solid" cx="790" cy="-330" style="fill: #800000"/><circle r="2" class="solid" cx="790" cy="-340" style="fill: #800000"/><circle r="2" class="solid" cx="870" cy="-400" style="fill: #800000"/><circle r="2" class="solid" cx="895" cy="-120" style="fill: #800000"/><circle r="2" class="solid" cx="895" cy="-265" style="fill: #800000"/><circle r="2" class="solid" cx="1050" cy="-135" style="fill: #800000"/><circle r="2" class="solid" cx="1050" cy="-195" style="fill: #800000"/><circle r="2" class="solid" cx="1050" cy="-265" style="fill: #800000"/><circle r="2" class="solid" cx="1050" cy="-380" style="fill: #800000"/><circle r="2" class="solid" cx="1120" cy="-135" style="fill: #800000"/><circle r="2" class="solid" cx="1120" cy="-195" style="fill: #800000"/></svg>