<svg class="schematic_svg" xmlns="http://www.w3.org/2000/svg" xmlns:xlink="http://www.w3.org/1999/xlink" width="11.505999999999998in" height="7.606000000000001in" viewBox="-0.3,-760.3 1150.6,760.6" stroke-width="1"><style type="text/css">.schematic_svg .outline, .schematic_svg path, .schematic_svg line, .schematic_svg polyline {
  stroke: currentColor;
  stroke-linecap: round;
  fill: none;
}
.schematic_svg .solid {
  fill: currentColor;
  stroke: none;
}
.schematic_svg text {
  dominant-baseline: text-after-edge;
  fill: currentColor;
}
.font2 {
  font-size: 8.75px;
  font-family: Times New Roman;
  text-decoration: underline;
}
text, .font1 {
  font-size: 8.75px;
  font-family: Times New Roman;
}
</style><defs><g id="gnd"><line x2="10"/><line y1="7" y2="-7" stroke-width="1.5" transform="translate(10, 0)"/><line y1="4" y2="-4" stroke-width="1.5" transform="translate(13, 0)"/><line y1="1" y2="-1" stroke-width="1.5" transform="translate(16, 0)"/></g><g id="rail"><line x2="10"/><line y1="7" y2="-7" stroke-width="1.5" transform="translate(10, 0)"/></g><g id="arrowconn"><polygon points="-5.33333,-0.5 -7,-3 0,0 -7,3 -5.33333,0.5" class="solid" transform="translate(10, 0)"/><line x2="4.66667"/></g><g id="dchevron"><line x2="5"/><polyline points="8,-4 5,0 8,4"/><polyline points="11,-4 8,0 11,4"/></g><g id="nc"><line x1="3" y1="-3" x2="-3" y2="3" stroke-width="0.6"/><line x1="-3" y1="-3" x2="3" y2="3" stroke-width="0.6"/></g><g id="clock"><polyline points="0,-3 -5,0 0,3" stroke-width="0.6"/></g></defs><g transform="translate(0, -760)"><rect width="1150" height="760" class="outline" stroke-width="0.6" style="fill: #FFFCF8"/><rect x="20" y="20" width="1110" height="720" class="outline" stroke-width="0.6"/><g transform="translate(143.75, 10)"><text style="dominant-baseline: middle; text-anchor: middle">1</text><line y1="10" y2="-10" stroke-width="0.6" transform="translate(143.75, 0)"/></g><g transform="translate(431.25, 10)"><text style="dominant-baseline: middle; text-anchor: middle">2</text><line y1="10" y2="-10" stroke-width="0.6" transform="translate(143.75, 0)"/></g><g transform="translate(718.75, 10)"><text style="dominant-baseline: middle; text-anchor: middle">3</text><line y1="10" y2="-10" stroke-width="0.6" transform="translate(143.75, 0)"/></g><g transform="translate(1006.25, 10)"><text style="dominant-baseline: middle; text-anchor: middle">4</text></g><g transform="translate(143.75, 750)"><text style="dominant-baseline: middle; text-anchor: middle">1</text><line y1="10" y2="-10" stroke-width="0.6" transform="translate(143.75, 0)"/></g><g transform="translate(431.25, 750)"><text style="dominant-baseline: middle; text-anchor: middle">2</text><line y1="10" y2="-10" stroke-width="0.6" transform="translate(143.75, 0)"/></g><g transform="translate(718.75, 750)"><text style="dominant-baseline: middle; text-anchor: middle">3</text><line y1="10" y2="-10" stroke-width="0.6" transform="translate(143.75, 0)"/></g><g transform="translate(1006.25, 750)"><text style="dominant-baseline: middle; text-anchor: middle">4</text></g><g transform="translate(10, 95.0)"><text style="dominant-baseline: middle; text-anchor: middle">A</text><line x1="-10" x2="10" stroke-width="0.6" transform="translate(0, 95.0)"/></g><g transform="translate(10, 285.0)"><text style="dominant-baseline: middle; text-anchor: middle">B</text><line x1="-10" x2="10" stroke-width="0.6" transform="translate(0, 95.0)"/></g><g transform="translate(10, 475.0)"><text style="dominant-baseline: middle; text-anchor: middle">C</text><line x1="-10" x2="10" stroke-width="0.6" transform="translate(0, 95.0)"/></g><g transform="translate(10, 665.0)"><text style="dominant-baseline: middle; text-anchor: middle">D</text></g><g transform="translate(1140, 95.0)"><text style="dominant-baseline: middle; text-anchor: middle">A</text><line x1="-10" x2="10" stroke-width="0.6" transform="translate(0, 95.0)"/></g><g transform="translate(1140, 285.0)"><text style="dominant-baseline: middle; text-anchor: middle">B</text><line x1="-10" x2="10" stroke-width="0.6" transform="translate(0, 95.0)"/></g><g transform="translate(1140, 475.0)"><text style="dominant-baseline: middle; text-anchor: middle">C</text><line x1="-10" x2="10" stroke-width="0.6" transform="translate(0, 95.0)"/></g><g transform="translate(1140, 665.0)"><text style="dominant-baseline: middle; text-anchor: middle">D</text></g><g transform="translate(1130, 740)"><polyline points="-350,0 -350,-80 0,-80" stroke-width="0.6"/><line x1="-350" x2="0" stroke-width="0.6" transform="translate(0, -50)"/><line y2="30" stroke-width="0.6" transform="translate(-300, -50)"/><line y2="30" stroke-width="0.6" transform="translate(-100, -50)"/><line x1="-350" x2="0" stroke-width="0.6" transform="translate(0, -20)"/><line x1="-350" x2="0" stroke-width="0.6" transform="translate(0, -10)"/><line y1="-20" y2="0" stroke-width="0.6" transform="translate(-150, 0)"/><text transform="translate(-345, -70)">Title</text><text transform="translate(-345, -40)">Size</text><text style="dominant-baseline: middle" transform="translate(-340, -30)">A4</text><text transform="translate(-295, -40)">Number</text><text transform="translate(-95, -40)">Revision</text><text transform="translate(-345, -10)">Date</text><text transform="translate(-300, -10)">04/27/21</text><text transform="translate(-345, 0)">File</text><text transform="translate(-300, 0)">D:/Documents/school/PE2/Small-scale-remoted-controlled-cargo-truck\Hardware/Mainpcb/mainpcb/Power sTM.SchDoc</text><text transform="translate(-145, -10)">Sheet</text><text transform="translate(-117, -10)">of</text><text transform="translate(-145, 0)">Drawn By:</text></g></g><rect x="198.504" y="-474.725" width="200" height="110" class="solid" stroke-width="1" data-id="MLPTEKJO" style="fill: #FFFFB0; stroke: #000000"/><g data-id="MLPTEKJO" transform="translate(198.50392, -454.72481) rotate(-180)"><line x2="30"/><text style="dominant-baseline: middle; text-anchor: start" transform="translate(-7, 0) rotate(-180)"><tspan>VSS</tspan></text><text style="text-anchor: end" transform="translate(9, 0) rotate(-180)">18</text></g><g data-id="MLPTEKJO" transform="translate(198.50392, -444.72481) rotate(-180)"><line x2="30"/><text style="dominant-baseline: middle; text-anchor: start" transform="translate(-7, 0) rotate(-180)"><tspan>VSS</tspan></text><text style="text-anchor: end" transform="translate(9, 0) rotate(-180)">31</text></g><g data-id="MLPTEKJO" transform="translate(198.50392, -434.72481) rotate(-180)"><line x2="30"/><text style="dominant-baseline: middle; text-anchor: start" transform="translate(-7, 0) rotate(-180)"><tspan>VSS</tspan></text><text style="text-anchor: end" transform="translate(9, 0) rotate(-180)">47</text></g><g data-id="MLPTEKJO" transform="translate(198.50392, -424.72481) rotate(-180)"><line x2="30"/><text style="dominant-baseline: middle; text-anchor: start" transform="translate(-7, 0) rotate(-180)"><tspan>VSS</tspan></text><text style="text-anchor: end" transform="translate(9, 0) rotate(-180)">63</text></g><g data-id="MLPTEKJO" transform="translate(198.50392, -404.72481) rotate(-180)"><line x2="30"/><text style="dominant-baseline: middle; text-anchor: start" transform="translate(-7, 0) rotate(-180)"><tspan>VSSA/VREF-</tspan></text><text style="text-anchor: end" transform="translate(9, 0) rotate(-180)">12</text></g><g data-id="MLPTEKJO" transform="translate(198.50392, -384.72481) rotate(-180)"><line x2="30"/><text style="dominant-baseline: middle; text-anchor: start" transform="translate(-7, 0) rotate(-180)"><tspan>VBAT</tspan></text><text style="text-anchor: end" transform="translate(9, 0) rotate(-180)">1</text></g><g data-id="MLPTEKJO" transform="translate(398.50392, -454.72481) rotate(0)"><line x2="30"/><text style="dominant-baseline: middle; text-anchor: end" transform="translate(-7, 0)"><tspan>VDD</tspan></text><text style="text-anchor: start" transform="translate(9, 0)">19</text></g><g data-id="MLPTEKJO" transform="translate(398.50392, -444.72481) rotate(0)"><line x2="30"/><text style="dominant-baseline: middle; text-anchor: end" transform="translate(-7, 0)"><tspan>VDD</tspan></text><text style="text-anchor: start" transform="translate(9, 0)">32</text></g><g data-id="MLPTEKJO" transform="translate(398.50392, -434.72481) rotate(0)"><line x2="30"/><text style="dominant-baseline: middle; text-anchor: end" transform="translate(-7, 0)"><tspan>VDD</tspan></text><text style="text-anchor: start" transform="translate(9, 0)">48</text></g><g data-id="MLPTEKJO" transform="translate(398.50392, -424.72481) rotate(0)"><line x2="30"/><text style="dominant-baseline: middle; text-anchor: end" transform="translate(-7, 0)"><tspan>VDD</tspan></text><text style="text-anchor: start" transform="translate(9, 0)">64</text></g><g data-id="MLPTEKJO" transform="translate(398.50392, -404.72481) rotate(0)"><line x2="30"/><text style="dominant-baseline: middle; text-anchor: end" transform="translate(-7, 0)"><tspan>VDDA/VREF+</tspan></text><text style="text-anchor: start" transform="translate(9, 0)">13</text></g><text class="font1" color="#000080" data-id="MLPTEKJO" transform="translate(198.50392, -474.72481)">U?B</text><text class="font1" color="#000080" data-id="MLPTEKJO" transform="translate(198.50392, -354.72481)">STM32F303R8T6</text><polyline points="294.646,-490.158 290.709,-490.158 290.709,-494.095 290.709,-486.221" color="#0000FF" data-id="JUQWTGBQ"/><polyline points="282.835,-490.158 286.772,-490.158 286.772,-486.221 286.772,-494.095" color="#0000FF" data-id="JUQWTGBQ"/><g data-id="JUQWTGBQ" transform="translate(282.83455, -490.1579) rotate(-180)"><line x2="3"/><text style="text-anchor: end" transform="translate(9, 0) rotate(-180)">1</text></g><g data-id="JUQWTGBQ" transform="translate(294.64558, -490.1579) rotate(0)"><line x2="3"/><text style="text-anchor: start" transform="translate(9, 0)">2</text></g><text class="font1" color="#000080" data-id="JUQWTGBQ" transform="translate(281.83455, -495.09491)">C?</text><text class="font1" color="#000080" data-id="JUQWTGBQ" transform="translate(281.83455, -475.22089)">0.1µF</text><polyline points="294.646,-521.654 290.709,-521.654 290.709,-525.591 290.709,-517.717" color="#0000FF" data-id="SFROMQGC"/><polyline points="282.835,-521.654 286.772,-521.654 286.772,-517.717 286.772,-525.591" color="#0000FF" data-id="SFROMQGC"/><g data-id="SFROMQGC" transform="translate(282.83455, -521.65398) rotate(-180)"><line x2="3"/><text style="text-anchor: end" transform="translate(9, 0) rotate(-180)">1</text></g><g data-id="SFROMQGC" transform="translate(294.64558, -521.65398) rotate(0)"><line x2="3"/><text style="text-anchor: start" transform="translate(9, 0)">2</text></g><text class="font1" color="#000080" data-id="SFROMQGC" transform="translate(281.83455, -526.59099)">C?</text><text class="font1" color="#000080" data-id="SFROMQGC" transform="translate(281.83455, -506.71697)">0.1µF</text><polyline points="294.646,-553.15 290.709,-553.15 290.709,-557.087 290.709,-549.213" color="#0000FF" data-id="FYJPXYEX"/><polyline points="282.835,-553.15 286.772,-553.15 286.772,-549.213 286.772,-557.087" color="#0000FF" data-id="FYJPXYEX"/><g data-id="FYJPXYEX" transform="translate(282.83455, -553.15006) rotate(-180)"><line x2="3"/><text style="text-anchor: end" transform="translate(9, 0) rotate(-180)">1</text></g><g data-id="FYJPXYEX" transform="translate(294.64558, -553.15006) rotate(0)"><line x2="3"/><text style="text-anchor: start" transform="translate(9, 0)">2</text></g><text class="font1" color="#000080" data-id="FYJPXYEX" transform="translate(281.83455, -558.08707)">C?</text><text class="font1" color="#000080" data-id="FYJPXYEX" transform="translate(281.83455, -538.21305)">0.1µF</text><polyline points="294.646,-584.646 290.709,-584.646 290.709,-588.583 290.709,-580.709" color="#0000FF" data-id="NGRKNNKG"/><polyline points="282.835,-584.646 286.772,-584.646 286.772,-580.709 286.772,-588.583" color="#0000FF" data-id="NGRKNNKG"/><g data-id="NGRKNNKG" transform="translate(282.83455, -584.64614) rotate(-180)"><line x2="3"/><text style="text-anchor: end" transform="translate(9, 0) rotate(-180)">1</text></g><g data-id="NGRKNNKG" transform="translate(294.64558, -584.64614) rotate(0)"><line x2="3"/><text style="text-anchor: start" transform="translate(9, 0)">2</text></g><text class="font1" color="#000080" data-id="NGRKNNKG" transform="translate(281.83455, -589.58315)">C?</text><text class="font1" color="#000080" data-id="NGRKNNKG" transform="translate(281.83455, -569.70913)">0.1µF</text><polyline points="294.646,-616.142 290.709,-616.142 290.709,-620.079 290.709,-612.205" color="#0000FF" data-id="FJPWQDYQ"/><polyline points="282.835,-616.142 286.772,-616.142 286.772,-612.205 286.772,-620.079" color="#0000FF" data-id="FJPWQDYQ"/><g data-id="FJPWQDYQ" transform="translate(282.83455, -616.14222) rotate(-180)"><line x2="3"/><text style="text-anchor: end" transform="translate(9, 0) rotate(-180)">1</text></g><g data-id="FJPWQDYQ" transform="translate(294.64558, -616.14222) rotate(0)"><line x2="3"/><text style="text-anchor: start" transform="translate(9, 0)">2</text></g><text class="font1" color="#000080" data-id="FJPWQDYQ" transform="translate(281.83455, -621.07923)">C?</text><text class="font1" color="#000080" data-id="FJPWQDYQ" transform="translate(281.83455, -601.20521)">4.7µF</text><g color="#800000" data-id="FFNUGNCK" transform="translate(133.22817, -490.1579)"><use xlink:href="#gnd" transform="rotate(-270)"/><text class="font1" style="dominant-baseline: hanging; text-anchor: middle" transform="translate(0, 20)">GND</text></g><g data-id="SXDZXAOP" transform="translate(467.87402, -403.54368)"><polygon points="0,5 38.3071,5 43.3071,0 38.3071,-5 0,-5" class="solid" stroke-width="0.6" style="fill: #FFFF80; stroke: #800000"/><text class="font1" color="#800000" style="dominant-baseline: middle; text-anchor: end" transform="translate(33.30711, 0)"><tspan>VDDA</tspan></text></g><g data-id="UARIMVGS" transform="translate(91.73225, -405.11851)"><polygon points="0,5 38.3071,5 43.3071,0 38.3071,-5 0,-5" class="solid" stroke-width="0.6" style="fill: #FFFF80; stroke: #800000"/><text class="font1" color="#800000" style="dominant-baseline: middle; text-anchor: end" transform="translate(33.30711, 0)"><tspan>VSSA</tspan></text></g><g data-id="BCOVIFFE" transform="translate(471.81103, -466.53584)"><polygon points="0,5 38.3071,5 43.3071,0 38.3071,-5 0,-5" class="solid" stroke-width="0.6" style="fill: #FFFF80; stroke: #800000"/><text class="font1" color="#800000" style="dominant-baseline: middle; text-anchor: start" transform="translate(10, 0)"><tspan>VDD</tspan></text></g><polyline points="298.583,-344.489 294.646,-344.489 294.646,-348.426 294.646,-340.552" color="#0000FF" data-id="BYTRGYWS"/><polyline points="286.772,-344.489 290.709,-344.489 290.709,-340.552 290.709,-348.426" color="#0000FF" data-id="BYTRGYWS"/><g data-id="BYTRGYWS" transform="translate(286.77156, -344.48853) rotate(-180)"><line x2="3"/><text style="text-anchor: end" transform="translate(9, 0) rotate(-180)">1</text></g><g data-id="BYTRGYWS" transform="translate(298.58259, -344.48853) rotate(0)"><line x2="3"/><text style="text-anchor: start" transform="translate(9, 0)">2</text></g><text class="font1" color="#000080" data-id="BYTRGYWS" transform="translate(285.77156, -349.42554)">C?</text><text class="font1" color="#000080" data-id="BYTRGYWS" transform="translate(285.77156, -329.55152)">1µF</text><polyline points="298.583,-312.992 294.646,-312.992 294.646,-316.929 294.646,-309.055" color="#0000FF" data-id="QGSCGMGR"/><polyline points="286.772,-312.992 290.709,-312.992 290.709,-309.055 290.709,-316.929" color="#0000FF" data-id="QGSCGMGR"/><g data-id="QGSCGMGR" transform="translate(286.77156, -312.99245) rotate(-180)"><line x2="3"/><text style="text-anchor: end" transform="translate(9, 0) rotate(-180)">1</text></g><g data-id="QGSCGMGR" transform="translate(298.58259, -312.99245) rotate(0)"><line x2="3"/><text style="text-anchor: start" transform="translate(9, 0)">2</text></g><text class="font1" color="#000080" data-id="QGSCGMGR" transform="translate(285.77156, -317.92946)">C?</text><text class="font1" color="#000080" data-id="QGSCGMGR" transform="translate(285.77156, -298.05544)">10nF</text><polyline points="133.228,-490.158 168.661,-490.158" stroke-width="1" color="#000080" data-id="XPLCARJE"/><polyline points="135.039,-405.119 156.85,-405.119 156.85,-404.725 168.504,-404.725" stroke-width="1" color="#000080" data-id="MFTEOMRX"/><polyline points="156.85,-404.725 156.85,-336.615 282.835,-336.615" stroke-width="1" color="#000080" data-id="GCGXMZVF"/><polyline points="278.898,-584.646 278.898,-553.15 278.898,-521.654 278.898,-490.158 251.338,-490.158 168.661,-490.158 168.661,-474.41 168.504,-454.725 168.504,-444.725 168.504,-434.725 168.504,-424.725" stroke-width="1" color="#000080" data-id="WHICPCJR"/><polyline points="251.338,-490.158 251.338,-616.142 278.898,-616.142" stroke-width="1" color="#000080" data-id="NUMHCKHF"/><polyline points="294.646,-336.615 302.52,-336.615 428.504,-336.615 428.504,-404.725" stroke-width="1" color="#000080" data-id="QCZTOLJX"/><polyline points="298.583,-584.646 298.583,-553.15 298.583,-521.654 298.583,-490.158 341.89,-490.158 341.89,-549.213 341.89,-616.142 298.583,-616.142" stroke-width="1" color="#000080" data-id="PYAEGWXY"/><polyline points="341.89,-549.213 428.504,-549.213 432.441,-549.213" stroke-width="1" color="#000080" data-id="TGGSIHOJ"/><polyline points="428.504,-404.725 467.874,-404.725 467.874,-403.544" stroke-width="1" color="#000080" data-id="UBGJZBRL"/><polyline points="471.811,-466.536 428.504,-466.536" stroke-width="1" color="#000080" data-id="XKMQCFLQ"/><polyline points="282.835,-344.489 282.835,-336.615 282.835,-312.992" stroke-width="1" color="#000080" data-id="MDASSOOK"/><polyline points="302.52,-344.489 302.52,-336.615 302.52,-312.992" stroke-width="1" color="#000080" data-id="EMKNKJTJ"/><polyline points="428.504,-549.213 428.504,-466.536 428.504,-454.725 428.504,-444.725 428.504,-434.725 428.504,-424.725" stroke-width="1" color="#000080" data-id="JEBUIWQB"/><circle r="2" class="solid" cx="156.85" cy="-404.725" style="fill: #800000"/><circle r="2" class="solid" cx="168.504" cy="-434.725" style="fill: #800000"/><circle r="2" class="solid" cx="168.504" cy="-444.725" style="fill: #800000"/><circle r="2" class="solid" cx="168.504" cy="-454.725" style="fill: #800000"/><circle r="2" class="solid" cx="168.661" cy="-490.158" style="fill: #800000"/><circle r="2" class="solid" cx="251.338" cy="-490.158" style="fill: #800000"/><circle r="2" class="solid" cx="278.898" cy="-490.158" style="fill: #800000"/><circle r="2" class="solid" cx="278.898" cy="-521.654" style="fill: #800000"/><circle r="2" class="solid" cx="278.898" cy="-553.15" style="fill: #800000"/><circle r="2" class="solid" cx="282.835" cy="-336.615" style="fill: #800000"/><circle r="2" class="solid" cx="298.583" cy="-490.158" style="fill: #800000"/><circle r="2" class="solid" cx="298.583" cy="-521.654" style="fill: #800000"/><circle r="2" class="solid" cx="298.583" cy="-553.15" style="fill: #800000"/><circle r="2" class="solid" cx="302.52" cy="-336.615" style="fill: #800000"/><circle r="2" class="solid" cx="341.89" cy="-549.213" style="fill: #800000"/><circle r="2" class="solid" cx="428.504" cy="-404.725" style="fill: #800000"/><circle r="2" class="solid" cx="428.504" cy="-434.725" style="fill: #800000"/><circle r="2" class="solid" cx="428.504" cy="-444.725" style="fill: #800000"/><circle r="2" class="solid" cx="428.504" cy="-454.725" style="fill: #800000"/><circle r="2" class="solid" cx="428.504" cy="-466.536" style="fill: #800000"/><circle r="2" class="solid" cx="428.504" cy="-549.213" style="fill: #800000"/></svg>